<svg width="1512" height="1024" viewBox="0 0 1920 1080" fill="none" xmlns="http://www.w3.org/2000/svg">
<path d="M2126.5 -306.684C2126.5 -306.684 2046.08 -370.726 1956.7 -354.526C1867.31 -338.327 1875.53 -288.789 1767.52 -225.067C1659.52 -161.346 1664.87 -36.809 1713.67 30.2C1755.11 87.0661 1851.64 87.9464 1878.15 138.321C1904.66 188.695 1862.2 201.809 1899.47 283.419C1936.74 365.029 2055.36 297.939 2055.36 297.939L1976.28 141.173L2126.5 -306.684Z" fill="#92CCE3"/>
<path opacity="0.7" d="M2126.5 -306.684C2126.5 -306.684 2046.08 -370.726 1956.7 -354.526C1867.31 -338.327 1875.53 -288.789 1767.52 -225.067C1659.52 -161.346 1664.87 -36.809 1713.67 30.2C1755.11 87.0661 1851.64 87.9464 1878.15 138.321C1904.66 188.695 1862.2 201.809 1899.47 283.419C1936.74 365.029 2055.36 297.939 2055.36 297.939L1976.28 141.173L2126.5 -306.684Z" fill="white"/>
<path d="M-506.834 870.449C-506.834 870.449 -519.712 731.404 -436.196 644.158C-352.679 556.912 -303.227 604.231 -152.883 532.809C-2.53988 461.387 132.973 563.281 172.3 669.337C205.658 759.364 136.035 867.739 173.043 936.114C210.051 1004.49 255.791 967.217 319.897 1071.66C384.004 1176.1 222.122 1256.77 222.122 1256.77L12.3718 1113.5L-506.834 870.449Z" fill="#92CCE3"/>
<path opacity="0.7" d="M-506.834 870.449C-506.834 870.449 -519.712 731.404 -436.196 644.158C-352.679 556.912 -303.227 604.231 -152.883 532.809C-2.53988 461.387 132.973 563.281 172.3 669.337C205.658 759.364 136.035 867.739 173.043 936.114C210.051 1004.49 255.791 967.217 319.897 1071.66C384.004 1176.1 222.122 1256.77 222.122 1256.77L12.8875 1123L-506.834 870.449Z" fill="white"/>
</svg>
