<svg width="802" height="632" viewBox="0 0 802 632" fill="none" xmlns="http://www.w3.org/2000/svg">
<path d="M712.215 533.752C712.215 533.752 802 457.362 802 356.555C802 255.748 743.725 255.728 693.306 125.885C642.887 -3.95823 499.549 -20.7561 412.919 20.4787C339.398 55.4957 318.412 161.02 255.394 180.878C192.376 200.735 186.188 151.862 85.269 177.818C-15.6498 203.775 36.4176 345.857 36.4176 345.857L231.823 287.804L712.215 533.752Z" fill="#92CCE3"/>
<path opacity="0.7" d="M712.215 533.752C712.215 533.752 802 457.362 802 356.555C802 255.748 743.725 255.728 693.306 125.885C642.887 -3.95823 499.549 -20.7561 412.919 20.4787C339.398 55.4957 318.412 161.02 255.394 180.878C192.376 200.735 186.188 151.862 85.269 177.818C-15.6498 203.775 36.4176 345.857 36.4176 345.857L231.823 287.804L712.215 533.752Z" fill="white"/>
<path d="M363.986 533.456L228.301 586.1L70.8779 433.438L174.015 418.97L363.986 533.456Z" fill="#92CCE3"/>
<path opacity="0.5" d="M363.986 533.456L228.301 586.1L70.8779 433.438L174.015 418.97L363.986 533.456Z" fill="white"/>
<path d="M530.896 603.214C548.882 603.214 563.463 593.784 563.463 582.152C563.463 570.52 548.882 561.091 530.896 561.091C512.909 561.091 498.328 570.52 498.328 582.152C498.328 593.784 512.909 603.214 530.896 603.214Z" fill="#92CCE3"/>
<path opacity="0.5" d="M530.896 603.214C548.882 603.214 563.463 593.784 563.463 582.152C563.463 570.52 548.882 561.091 530.896 561.091C512.909 561.091 498.328 570.52 498.328 582.152C498.328 593.784 512.909 603.214 530.896 603.214Z" fill="white"/>
<path d="M403.353 462.573L602.178 477.851L558.049 455.823L403.353 462.573Z" fill="#92CCE3"/>
<path opacity="0.5" d="M403.353 462.573L602.178 477.851L558.049 455.823L403.353 462.573Z" fill="white"/>
<path d="M448.133 403.179L389.145 398.501L396.554 390.013H430.485L448.133 403.179Z" fill="#92CCE3"/>
<path opacity="0.5" d="M448.133 403.179L389.145 398.501L396.554 390.013H430.485L448.133 403.179Z" fill="white"/>
<path d="M639.407 631.5C662.261 631.5 680.788 620.604 680.788 607.162C680.788 593.72 662.261 582.824 639.407 582.824C616.552 582.824 598.025 593.72 598.025 607.162C598.025 620.604 616.552 631.5 639.407 631.5Z" fill="#92CCE3"/>
<path opacity="0.5" d="M639.407 631.5C662.261 631.5 680.788 620.604 680.788 607.162C680.788 593.72 662.261 582.824 639.407 582.824C616.552 582.824 598.025 593.72 598.025 607.162C598.025 620.604 616.552 631.5 639.407 631.5Z" fill="white"/>
<path d="M394.193 550.649L371.904 586.16L421.265 595.437L440.378 559.927L394.193 550.649Z" fill="white" stroke="#263238" stroke-linecap="round" stroke-linejoin="round"/>
<path d="M432.419 510.52L410.131 542.931L456.295 556.828L475.409 524.416L432.419 510.52Z" fill="#92CCE3"/>
<mask id="mask0_786_2410" style="mask-type:luminance" maskUnits="userSpaceOnUse" x="410" y="510" width="66" height="47">
<path d="M432.419 510.52L410.131 542.931L456.295 556.828L475.409 524.416L432.419 510.52Z" fill="white"/>
</mask>
<g mask="url(#mask0_786_2410)">
<path opacity="0.5" d="M432.419 510.52L410.131 542.931L456.295 556.828L475.409 524.416L432.419 510.52Z" fill="white" stroke="#263238" stroke-miterlimit="10"/>
</g>
<path d="M432.419 510.52L410.131 542.931L456.295 556.828L475.409 524.416L432.419 510.52Z" stroke="#263238" stroke-linecap="round" stroke-linejoin="round"/>
<path d="M481.78 572.284L441.966 583.081L457.883 607.794L504.068 596.977L481.78 572.284Z" fill="#92CCE3" stroke="#263238" stroke-linecap="round" stroke-linejoin="round"/>
<path d="M595.358 565.947L599.429 595.93C599.429 608.346 615.001 618.433 634.216 618.433C653.43 618.433 669.022 608.346 669.022 595.93L673.215 565.947H595.358Z" fill="#92CCE3" stroke="#263238" stroke-linecap="round" stroke-linejoin="round"/>
<path d="M634.257 591.154C655.784 591.154 673.236 579.868 673.236 565.947C673.236 552.026 655.784 540.74 634.257 540.74C612.729 540.74 595.277 552.026 595.277 565.947C595.277 579.868 612.729 591.154 634.257 591.154Z" fill="#92CCE3" stroke="#263238" stroke-linecap="round" stroke-linejoin="round"/>
<path d="M634.256 587.383C652.569 587.383 667.414 577.786 667.414 565.947C667.414 554.108 652.569 544.51 634.256 544.51C615.944 544.51 601.099 554.108 601.099 565.947C601.099 577.786 615.944 587.383 634.256 587.383Z" fill="#92CCE3" stroke="#263238" stroke-linecap="round" stroke-linejoin="round"/>
<path d="M634.257 587.403C652.255 587.403 666.845 579.538 666.845 569.835C666.845 560.133 652.255 552.268 634.257 552.268C616.259 552.268 601.669 560.133 601.669 569.835C601.669 579.538 616.259 587.403 634.257 587.403Z" fill="#263238" stroke="#263238" stroke-linecap="round" stroke-linejoin="round"/>
<path d="M646.001 508.408C640.343 504.874 631.753 505.19 628.313 511.724C623.224 521.238 626.868 538.865 625.036 541.332C623.204 543.8 617.769 544.51 615.225 539.22C612.68 533.93 612.68 526.883 609.403 526.528C606.126 526.173 601.77 527.594 601.038 535.707C600.305 543.82 601.77 552.978 607.592 557.203C613.413 561.427 619.947 560.025 621.84 561.802C623.733 563.578 621.84 566.342 621.84 568.158C621.84 576.053 632.486 580.001 639.223 578.027C649.034 575.204 647.955 565.671 649.4 561.802C650.846 557.933 658.865 557.558 661.776 551.577C664.687 545.596 669.043 533.575 662.855 528.995C656.667 524.416 651.945 526.528 651.232 531.463C650.385 535.381 649.017 539.177 647.161 542.754C651.517 534.404 655.792 514.527 646.001 508.408Z" fill="#92CCE3"/>
<mask id="mask1_786_2410" style="mask-type:luminance" maskUnits="userSpaceOnUse" x="600" y="506" width="66" height="73">
<path d="M646.001 508.408C640.343 504.874 631.753 505.19 628.313 511.724C623.224 521.238 626.868 538.865 625.036 541.332C623.204 543.8 617.769 544.51 615.225 539.22C612.68 533.93 612.68 526.883 609.403 526.528C606.126 526.173 601.77 527.594 601.038 535.707C600.305 543.82 601.77 552.978 607.592 557.203C613.413 561.427 619.947 560.025 621.84 561.802C623.733 563.578 621.84 566.342 621.84 568.158C621.84 576.053 632.486 580.001 639.223 578.027C649.034 575.204 647.955 565.671 649.4 561.802C650.846 557.933 658.865 557.558 661.776 551.577C664.687 545.596 669.043 533.575 662.855 528.995C656.667 524.416 651.945 526.528 651.232 531.463C650.385 535.381 649.017 539.177 647.161 542.754C651.517 534.404 655.792 514.527 646.001 508.408Z" fill="white"/>
</mask>
<g mask="url(#mask1_786_2410)">
<path opacity="0.2" d="M646.001 508.408C640.343 504.874 631.753 505.19 628.313 511.724C623.224 521.238 626.868 538.865 625.036 541.332C623.204 543.8 617.769 544.51 615.225 539.22C612.68 533.93 612.68 526.883 609.403 526.528C606.126 526.173 601.77 527.594 601.038 535.707C600.305 543.82 601.77 552.978 607.592 557.203C613.413 561.427 619.947 560.025 621.84 561.802C623.733 563.578 621.84 566.342 621.84 568.158C621.84 576.053 632.486 580.001 639.223 578.027C649.034 575.204 647.955 565.671 649.4 561.802C650.846 557.933 658.865 557.558 661.776 551.577C664.687 545.596 669.043 533.575 662.855 528.995C656.667 524.416 651.945 526.528 651.232 531.463C650.385 535.381 649.017 539.177 647.161 542.754C651.517 534.404 655.792 514.527 646.001 508.408Z" fill="black"/>
</g>
<path d="M646.001 508.408C640.343 504.874 631.753 505.19 628.313 511.724C623.224 521.238 626.868 538.865 625.036 541.332C623.204 543.8 617.769 544.51 615.225 539.22C612.68 533.93 612.68 526.883 609.403 526.528C606.126 526.173 601.77 527.594 601.038 535.707C600.305 543.82 601.77 552.978 607.592 557.203C613.413 561.427 619.947 560.025 621.84 561.802C623.733 563.578 621.84 566.342 621.84 568.158C621.84 576.053 632.486 580.001 639.223 578.027C649.034 575.204 647.955 565.671 649.4 561.802C650.846 557.933 658.865 557.558 661.776 551.577C664.687 545.596 669.043 533.575 662.855 528.995C656.667 524.416 651.945 526.528 651.232 531.463C650.385 535.381 649.017 539.177 647.161 542.754C651.517 534.404 655.792 514.527 646.001 508.408Z" stroke="#263238" stroke-linecap="round" stroke-linejoin="round"/>
<path d="M637.046 511.013C635.394 512.067 634.012 513.471 633.004 515.119C631.995 516.768 631.387 518.617 631.224 520.527C630.858 526.883 631.224 546.978 628.68 549.8C626.135 552.623 617.77 551.912 612.396 546.978C607.022 542.043 609.404 531.483 609.404 531.483" stroke="#263238" stroke-width="0.5" stroke-linecap="round" stroke-linejoin="round"/>
<path d="M611.012 553.195C612.897 554.618 615.077 555.628 617.403 556.156C623.957 557.558 628.68 554.399 629.779 557.558C630.878 560.716 628.68 572.026 628.68 572.026" stroke="#263238" stroke-width="0.5" stroke-linecap="round" stroke-linejoin="round"/>
<path d="M607.226 549.445C607.903 550.372 608.681 551.225 609.546 551.992" stroke="#263238" stroke-width="0.5" stroke-linecap="round" stroke-linejoin="round"/>
<path d="M636.923 566.243C637.29 560.986 637.331 555.713 637.045 550.452C636.394 542.556 640.18 527.89 641.116 521.258" stroke="#263238" stroke-width="0.5" stroke-linecap="round" stroke-linejoin="round"/>
<path d="M636.312 574.494C636.312 574.494 636.516 572.342 636.74 569.184" stroke="#263238" stroke-width="0.5" stroke-linecap="round" stroke-linejoin="round"/>
<path d="M661.491 539.161C661.674 537.444 661.776 536.397 661.776 536.397" stroke="#263238" stroke-width="0.5" stroke-linecap="round" stroke-linejoin="round"/>
<path d="M644.312 568.138C644.312 568.138 645.777 556.512 648.688 554.321C651.599 552.13 659.944 550.787 660.677 545.497C660.799 544.668 660.901 543.879 661.002 543.148" stroke="#263238" stroke-width="0.5" stroke-linecap="round" stroke-linejoin="round"/>
<path d="M656.688 531.818C655.925 532.314 655.317 533.003 654.929 533.81C654.542 534.618 654.39 535.513 654.49 536.398C654.639 538.511 654.175 540.622 653.149 542.492C652.124 544.363 650.579 545.916 648.688 546.978" stroke="#263238" stroke-width="0.5" stroke-linecap="round" stroke-linejoin="round"/>
<path d="M641.524 517.231C641.633 515.257 641.592 513.278 641.401 511.31" stroke="#263238" stroke-width="0.5" stroke-linecap="round" stroke-linejoin="round"/>
<path d="M502.908 509.493L508.302 564.565V570.388C508.302 578.283 519.742 584.541 533.868 584.541C547.994 584.541 559.433 578.204 559.433 570.388V564.565L564.339 508.92L502.908 509.493Z" fill="white" stroke="#263238" stroke-linecap="round" stroke-linejoin="round"/>
<path d="M559.677 561.584L562.506 529.508C558.7 535.252 547.342 539.378 533.908 539.378C519.761 539.378 507.935 534.759 504.78 528.541L507.996 561.387C513.207 565.591 522.835 568.434 533.908 568.434C544.981 568.434 554.466 565.729 559.677 561.584Z" fill="#92CCE3" stroke="#263238" stroke-linecap="round" stroke-linejoin="round"/>
<path d="M503.926 519.876V519.501L503.661 517.29L503.926 519.876Z" fill="white" stroke="#263238" stroke-linecap="round" stroke-linejoin="round"/>
<path d="M565.315 501.321C559.901 494.689 547.871 490.05 533.867 490.05C519.863 490.05 507.833 494.689 502.399 501.321H499.325V509.217C499.325 519.797 514.795 528.364 533.928 528.364C553.062 528.364 568.531 519.797 568.531 509.217V501.321H565.315Z" fill="#92CCE3" stroke="#263238" stroke-linecap="round" stroke-linejoin="round"/>
<path opacity="0.2" d="M565.315 501.321C559.901 494.689 547.871 490.05 533.867 490.05C519.863 490.05 507.833 494.689 502.399 501.321H499.325V509.217C499.325 519.797 514.795 528.364 533.928 528.364C553.062 528.364 568.531 519.797 568.531 509.217V501.321H565.315Z" fill="black"/>
<path d="M533.867 520.468C552.944 520.468 568.409 511.896 568.409 501.321C568.409 490.747 552.944 482.174 533.867 482.174C514.79 482.174 499.325 490.747 499.325 501.321C499.325 511.896 514.79 520.468 533.867 520.468Z" fill="white" stroke="#263238" stroke-linecap="round" stroke-linejoin="round"/>
<path d="M561.346 490.642C556.604 484.839 546.101 480.773 533.867 480.773C521.634 480.773 511.131 484.819 506.388 490.642H503.763V497.512C503.763 506.75 517.258 514.231 533.928 514.231C550.599 514.231 564.094 506.75 564.094 497.512V490.642H561.346Z" fill="#92CCE3" stroke="#263238" stroke-linecap="round" stroke-linejoin="round"/>
<path d="M533.868 507.361C550.528 507.361 564.034 499.876 564.034 490.642C564.034 481.409 550.528 473.923 533.868 473.923C517.208 473.923 503.702 481.409 503.702 490.642C503.702 499.876 517.208 507.361 533.868 507.361Z" fill="white" stroke="#263238" stroke-linecap="round" stroke-linejoin="round"/>
<path d="M691.195 522.978L263.908 306.5" stroke="#263238" stroke-linecap="round" stroke-linejoin="round"/>
<path d="M224.397 328.718C224.397 328.718 226.789 327.226 241.777 333.505C256.766 339.784 259.495 339.949 271.512 338.593C276.068 338.079 279.663 337.055 283.553 335.237C291.394 331.57 282.656 326.625 283.192 323.631C283.727 320.638 285.913 320.89 289.227 320.703C294.769 320.391 298.039 324.688 300.119 329.834C304.167 339.848 291.913 346.792 281.386 349.212C264.839 353.014 244.774 346.53 237.689 343.386C234.426 342.048 231.271 340.48 228.248 338.693L224.397 328.718Z" fill="white" stroke="#263238" stroke-linecap="round" stroke-linejoin="round"/>
<path d="M195.531 334.408C195.531 334.408 215.234 356.555 223.885 350.436C232.536 344.317 231.762 324.479 223.885 318.36C216.007 312.241 193.963 323.709 195.531 334.408Z" fill="white" stroke="#263238" stroke-linecap="round" stroke-linejoin="round"/>
<path d="M255.434 273.296C255.434 273.296 256.228 293.923 250.712 307.661C245.196 321.4 234.957 330.578 233.39 338.217C231.823 345.856 232.596 356.555 224.719 359.614C216.842 362.674 216.842 357.325 217.636 351.206C218.429 345.087 219.997 322.189 219.997 322.189L193.963 337.448C193.963 337.448 201.046 356.555 186.086 358.845C171.125 361.134 153.009 338.987 150.648 322.248C148.287 305.51 157.732 268.006 174.28 258.077C190.828 248.148 212.079 249.688 223.131 249.688C234.184 249.688 250.671 257.268 255.434 273.296Z" fill="white" stroke="#263238" stroke-linecap="round" stroke-linejoin="round"/>
<path d="M192.64 252.096C192.64 252.096 188.569 254.07 181.466 264.907C174.362 275.744 188.569 285.08 196.202 280.165C203.835 275.25 197.2 264.907 202.797 259.972C206.018 257.323 208.178 253.663 208.904 249.629L192.64 252.096Z" fill="#263238"/>
<path d="M169.802 267.354C167.982 268.614 166.454 270.229 165.315 272.095C164.175 273.961 163.451 276.037 163.187 278.191C162.678 285.079 175.4 272.269 176.906 266.347C178.412 260.425 169.802 267.354 169.802 267.354Z" fill="#263238"/>
<path d="M215.233 251.918C213.427 255.1 212.546 258.698 212.686 262.328C212.826 265.958 213.981 269.483 216.027 272.525C223.111 283.224 238.865 287.803 245.155 280.164C251.444 272.525 253.826 268.716 251.465 264.906C249.104 261.097 226.266 245.799 215.233 251.918Z" fill="#92CCE3" stroke="#263238" stroke-linecap="round" stroke-linejoin="round"/>
<path d="M273.509 214.493C270.519 214.808 267.495 214.493 264.642 213.57C261.79 212.646 259.176 211.137 256.981 209.143C249.104 202.274 242 186.996 238.865 187.746C235.731 188.496 224.617 210.663 224.617 210.663C224.617 210.663 205.707 212.203 204.14 217.533C202.573 222.862 211.224 248.089 218.388 258.787C221.729 263.553 226.177 267.491 231.374 270.285C236.571 273.079 242.372 274.651 248.31 274.874C257.754 274.874 286.109 277.164 290.057 267.985C294.006 258.807 290.831 231.33 290.831 231.33C290.831 231.33 303.451 219.112 297.935 216.822C292.419 214.532 273.509 214.493 273.509 214.493Z" fill="white" stroke="#263238" stroke-linecap="round" stroke-linejoin="round"/>
<path d="M269.683 252.708C268.726 251.503 267.81 250.28 266.914 249.016C265.429 246.885 261.907 243.628 255.129 245.7C245.481 248.641 238.845 257.544 249.552 264.906C259.627 271.914 279.86 265.597 269.683 252.708Z" fill="#263238"/>
<path d="M224.679 210.664C224.679 210.664 235.711 216.783 242.001 214.493C248.29 212.203 244.362 186.227 238.866 187.747C233.37 189.267 223.885 200.735 224.679 210.664Z" fill="white" stroke="#263238" stroke-linecap="round" stroke-linejoin="round"/>
<path d="M297.935 216.783C297.935 216.783 287.758 216.013 281.387 222.882C275.016 229.751 279.026 236.699 287.697 238.16C296.368 239.621 301.07 216.783 297.935 216.783Z" fill="white" stroke="#263238" stroke-linecap="round" stroke-linejoin="round"/>
<path d="M236.505 259.557C236.505 259.557 226.327 251.918 228.627 258.017C230.928 264.117 234.917 264.906 238.805 263.367C242.693 261.827 236.505 259.557 236.505 259.557Z" fill="#92CCE3" stroke="#263238" stroke-linecap="round" stroke-linejoin="round"/>
<path d="M230.886 240.41C230.296 242.384 228.627 243.766 227.161 243.371C225.696 242.976 224.983 241.002 225.574 238.969C226.164 236.936 227.833 235.613 229.299 236.008C230.764 236.403 231.477 238.397 230.886 240.41Z" fill="#263238"/>
<path d="M255.17 258.432C253.277 259.498 251.099 259.34 250.366 258.057C249.633 256.774 250.488 254.899 252.402 253.833C253.101 253.294 253.984 253.031 254.875 253.097C255.766 253.163 256.598 253.553 257.205 254.189C257.938 255.472 257.042 257.367 255.17 258.432Z" fill="white"/>
<path d="M184.519 306.912C184.519 306.912 182.158 323.709 185.292 330.598C188.427 337.487 191.602 363.444 197.912 364.155C204.222 364.865 201.841 350.337 201.841 348.107C201.841 345.876 202.635 321.38 202.635 321.38C202.635 321.38 208.151 309.912 211.285 303.812" fill="white"/>
<path d="M184.519 306.912C184.519 306.912 182.158 323.709 185.292 330.598C188.427 337.487 191.602 363.444 197.912 364.155C204.222 364.865 201.841 350.337 201.841 348.107C201.841 345.876 202.635 321.38 202.635 321.38C202.635 321.38 208.151 309.912 211.285 303.812" stroke="#263238" stroke-linecap="round" stroke-linejoin="round"/>
<path d="M158.525 306.141C158.525 306.141 179.796 300.022 182.157 322.939" stroke="#263238" stroke-linecap="round" stroke-linejoin="round"/>
<path d="M219.956 322.248C219.956 322.248 238.072 313.069 238.866 293.212" stroke="#263238" stroke-linecap="round" stroke-linejoin="round"/>
<path d="M279.025 393.21L368.81 449.348L442.657 420.134L343.184 371.103L279.025 393.21Z" fill="#263238" stroke="#263238" stroke-linecap="round" stroke-linejoin="round"/>
<path d="M336.731 381.505L300.947 393.763" stroke="white" stroke-width="0.5" stroke-linecap="round" stroke-linejoin="round"/>
<path d="M306.565 397.849L371.131 437.327L423.748 417.588" stroke="white" stroke-width="0.5" stroke-linecap="round" stroke-linejoin="round"/>
<path d="M495.07 355.055C479.703 359.417 419.005 376.649 413.366 377.932C409.874 378.757 406.332 379.37 402.762 379.768C402.762 379.768 381.552 370.945 375.873 366.918C370.194 362.891 363.375 365.437 359.976 366.918C356.577 368.398 353.869 378.663 360.363 378.663C366.856 378.663 367.935 378.288 375.12 384.17C382.305 390.052 382.325 392.993 387.618 395.184C392.91 397.375 401.642 395.914 406.181 395.184C410.252 394.533 480.639 389.993 497.961 389.104C500.22 379.867 497.961 365.437 495.07 355.055Z" fill="white"/>
<path d="M495.07 355.055C479.703 359.417 419.005 376.649 413.366 377.932C409.874 378.757 406.332 379.37 402.762 379.768C402.762 379.768 381.552 370.945 375.873 366.918C370.194 362.891 363.375 365.437 359.976 366.918C356.577 368.398 353.869 378.663 360.363 378.663C366.856 378.663 367.935 378.288 375.12 384.17C382.305 390.052 382.325 392.993 387.618 395.184C392.91 397.375 401.642 395.914 406.181 395.184C410.252 394.533 480.639 389.993 497.961 389.104C500.22 379.867 497.961 365.437 495.07 355.055Z" stroke="#263238" stroke-linecap="round" stroke-linejoin="round"/>
<path d="M343.305 379.038C343.305 379.038 335.347 383.439 333.128 388.572C330.909 393.704 335.387 392.243 336.914 391.157C338.441 390.072 344.873 384.9 344.873 384.9L343.305 379.038Z" fill="white" stroke="#263238" stroke-linecap="round" stroke-linejoin="round"/>
<path d="M345.585 375.347C344.095 376.274 342.916 377.602 342.193 379.17C341.47 380.737 341.234 382.475 341.514 384.17C342.267 390.408 349.086 399.586 349.86 395.915C350.633 392.243 345.585 375.347 345.585 375.347Z" fill="white" stroke="#263238" stroke-linecap="round" stroke-linejoin="round"/>
<path d="M355.05 369.839C355.05 369.839 347.845 371.675 345.585 375.347C343.326 379.018 347.091 394.829 349.758 395.915C350.324 396.161 350.94 396.279 351.56 396.259C352.18 396.24 352.787 396.083 353.334 395.801C353.882 395.519 354.356 395.12 354.721 394.633C355.085 394.147 355.33 393.586 355.437 392.993C356.19 390.407 355.05 369.839 355.05 369.839Z" fill="white" stroke="#263238" stroke-linecap="round" stroke-linejoin="round"/>
<path d="M364.149 366.168C364.149 366.168 354.663 366.168 353.544 370.589C352.424 375.011 350.511 394.079 352.404 397.02C354.297 399.961 357.33 398.856 358.836 395.184C360.342 391.513 364.149 366.168 364.149 366.168Z" fill="white" stroke="#263238" stroke-linecap="round" stroke-linejoin="round"/>
<path d="M372.759 331.96L357.208 400.632L359.651 409.396C359.687 409.53 359.76 409.653 359.861 409.751C359.962 409.85 360.088 409.921 360.226 409.957C360.365 409.993 360.51 409.993 360.649 409.957C360.787 409.921 360.913 409.85 361.014 409.751L367.813 403.198L379.171 333.796L372.759 331.96Z" fill="#263238"/>
<path d="M388.005 387.387C388.005 387.387 379.293 390.703 372.474 393.644C365.655 396.586 358.836 398.046 359.589 402.093C360.343 406.139 363.375 404.659 368.301 403.198C375.06 400.912 382.045 399.311 389.144 398.421C398.609 397.316 406.181 388.868 406.181 388.868" fill="white"/>
<path d="M388.005 387.387C388.005 387.387 379.293 390.703 372.474 393.644C365.655 396.586 358.836 398.046 359.589 402.093C360.343 406.139 363.375 404.659 368.301 403.198C375.06 400.912 382.045 399.311 389.144 398.421C398.609 397.316 406.181 388.868 406.181 388.868" stroke="#263238" stroke-linecap="round" stroke-linejoin="round"/>
<path d="M357.411 401.698L358.999 408.173C359.077 408.485 359.237 408.772 359.465 409.004C359.693 409.237 359.98 409.408 360.297 409.5C360.614 409.592 360.951 409.602 361.273 409.528C361.595 409.455 361.892 409.3 362.133 409.081L365.858 405.646" stroke="white" stroke-width="0.5" stroke-linecap="round" stroke-linejoin="round"/>
<path d="M357.229 400.632L365.269 365.852" stroke="white" stroke-width="0.5" stroke-linecap="round" stroke-linejoin="round"/>
<path d="M373.369 331.842C373.369 331.842 377.053 325.584 378.6 333.342L373.369 331.842Z" fill="#263238"/>
<mask id="mask2_786_2410" style="mask-type:luminance" maskUnits="userSpaceOnUse" x="356" y="355" width="143" height="42">
<path d="M495.07 355.055C479.703 359.417 419.005 376.649 413.366 377.932C409.874 378.757 406.332 379.37 402.762 379.768C402.762 379.768 381.552 370.945 375.873 366.918C370.194 362.891 363.375 365.437 359.976 366.918C356.577 368.398 353.869 378.663 360.363 378.663C366.856 378.663 367.935 378.288 375.12 384.17C382.305 390.052 382.325 392.993 387.618 395.184C392.91 397.375 401.642 395.914 406.181 395.184C410.252 394.533 480.639 389.993 497.961 389.104C500.22 379.867 497.961 365.437 495.07 355.055Z" fill="white"/>
</mask>
<g mask="url(#mask2_786_2410)">
<g style="mix-blend-mode:multiply" opacity="0.5">
<path d="M497.493 365.674L406.182 395.283C410.253 394.631 480.639 390.092 497.961 389.203C499.508 382.768 498.938 373.984 497.493 365.674Z" fill="#92CCE3"/>
</g>
</g>
<path d="M112.951 430.261L221.116 400.514C224.554 400.16 228.013 400.969 230.907 402.804L406.914 511.862C407.664 512.332 408.247 513.014 408.584 513.816C408.921 514.617 408.996 515.5 408.798 516.345C408.6 517.189 408.14 517.954 407.479 518.536C406.818 519.118 405.988 519.489 405.103 519.599L257.083 564.308L112.951 430.261Z" fill="#92CCE3" stroke="#263238" stroke-linecap="round" stroke-linejoin="round"/>
<path d="M176.193 436.538L191.52 446.782L209.229 441.926L193.922 431.702L176.193 436.538Z" fill="#263238"/>
<path d="M185.74 465.179L170.433 454.934L152.704 459.79L168.031 470.034L185.74 465.179Z" fill="#263238"/>
<path d="M214.704 442.814L230.011 453.039L247.72 448.183L232.413 437.958L214.704 442.814Z" fill="#263238"/>
<path d="M232.556 454.737L247.862 464.961L265.571 460.106L250.264 449.881L232.556 454.737Z" fill="#263238"/>
<path d="M194.045 448.46L209.352 458.705L227.06 453.849L211.754 443.624L194.045 448.46Z" fill="#263238"/>
<path d="M155.533 442.202L170.84 452.447L188.569 447.591L173.242 437.347L155.533 442.202Z" fill="#263238"/>
<path d="M277.763 507.203L262.436 496.958L244.748 501.814L260.055 512.059L277.763 507.203Z" fill="#263238"/>
<path d="M257.083 512.868L241.776 502.624L224.067 507.479L239.395 517.704L257.083 512.868Z" fill="#263238"/>
<path d="M203.57 477.101L188.263 466.856L170.555 471.712L185.861 481.937L203.57 477.101Z" fill="#263238"/>
<path d="M295.595 519.126L280.288 508.901L262.579 513.737L277.886 523.982L295.595 519.126Z" fill="#263238"/>
<path d="M221.422 489.023L206.094 478.779L188.386 483.635L203.713 493.859L221.422 489.023Z" fill="#263238"/>
<path d="M239.253 500.946L223.946 490.701L206.237 495.557L221.544 505.802L239.253 500.946Z" fill="#263238"/>
<path d="M250.386 466.659L265.692 476.884L283.401 472.028L268.094 461.803L250.386 466.659Z" fill="#263238"/>
<path d="M173.385 454.125L188.692 464.37L206.4 459.514L191.093 449.289L173.385 454.125Z" fill="#263238"/>
<path d="M316.255 513.461L300.948 503.236L283.239 508.092L298.546 518.316L316.255 513.461Z" fill="#263238"/>
<path d="M262.742 477.694L247.435 467.469L229.727 472.305L245.033 482.549L262.742 477.694Z" fill="#263238"/>
<path d="M224.23 471.436L208.923 461.191L191.215 466.047L206.522 476.292L224.23 471.436Z" fill="#263238"/>
<path d="M150.057 441.334L141.101 435.333L128.99 438.63L136.074 445.163L150.057 441.334Z" fill="#263238"/>
<path d="M167.888 453.256L152.581 443.012L138.068 446.999L150.057 458.013L150.179 458.092L167.888 453.256Z" fill="#263238"/>
<path d="M211.875 460.402L227.202 470.627L244.911 465.771L229.584 455.546L211.875 460.402Z" fill="#263238"/>
<path d="M242.082 483.359L226.775 473.134L209.066 477.97L224.373 488.214L242.082 483.359Z" fill="#263238"/>
<path d="M319.084 495.873L303.777 485.648L286.068 490.504L301.375 500.729L319.084 495.873Z" fill="#263238"/>
<path d="M268.217 478.581L283.544 488.806L301.253 483.95L285.946 473.726L268.217 478.581Z" fill="#263238"/>
<path d="M298.424 501.538L283.117 491.313L265.408 496.169L280.715 506.394L298.424 501.538Z" fill="#263238"/>
<path d="M280.572 489.616L265.265 479.391L247.557 484.227L262.884 494.472L280.572 489.616Z" fill="#263238"/>
<path d="M259.913 495.281L244.606 485.056L226.897 489.892L242.204 500.137L259.913 495.281Z" fill="#263238"/>
<path d="M182.911 482.747L167.604 472.522L166.24 472.897L178.311 484.01L182.911 482.747Z" fill="#263238"/>
<path d="M318.799 515.158L301.09 520.014L319.45 532.272L336.711 527.12L318.799 515.158Z" fill="#263238"/>
<path d="M298.118 520.823L280.409 525.659L299.319 538.292L316.559 533.14L298.118 520.823Z" fill="#263238"/>
<path d="M218.592 506.591L203.286 496.366L194.391 498.794L206.481 509.927L218.592 506.591Z" fill="#263238"/>
<path d="M336.935 507.795L321.608 497.57L303.899 502.426L319.227 512.651L336.935 507.795Z" fill="#263238"/>
<path d="M236.423 518.534L221.116 508.289L208.476 511.763L220.546 522.876L236.423 518.534Z" fill="#263238"/>
<path d="M254.274 530.456L238.967 520.211L222.541 524.711L234.632 535.825L254.274 530.456Z" fill="#263238"/>
<path d="M274.934 524.79L259.628 514.546L241.919 519.402L257.226 529.646L274.934 524.79Z" fill="#263238"/>
<path d="M374.957 508.723L364.78 502.545L342.39 508.684L359.691 520.251L373.166 516.303C374.054 516.228 374.894 515.882 375.566 515.314C376.238 514.747 376.707 513.987 376.906 513.145C377.105 512.303 377.024 511.421 376.674 510.627C376.323 509.832 375.722 509.166 374.957 508.723Z" fill="#263238"/>
<path d="M256.799 532.133L236.627 537.66L252.504 552.267L276.298 545.161L256.799 532.133Z" fill="#263238"/>
<path d="M345.891 490.918L324.579 496.761L339.886 506.986L362.174 500.887L345.891 490.918Z" fill="#263238"/>
<path d="M339.459 509.493L321.75 514.349L339.581 526.271L356.842 521.119L339.459 509.493Z" fill="#263238"/>
<path d="M215.01 423.529L229.482 419.562L220.139 413.837L206.176 417.627L215.01 423.529Z" fill="#263238"/>
<path d="M296.429 539.161L277.459 526.468L259.75 531.324L279.168 544.312L296.429 539.161Z" fill="#263238"/>
<path d="M217.534 425.227L232.841 435.452L248.453 431.188L232.169 421.22L217.534 425.227Z" fill="#263238"/>
<path d="M253.216 449.072L268.523 459.296L286.353 454.421L270.09 444.453L253.216 449.072Z" fill="#263238"/>
<path d="M235.364 437.15L250.691 447.374L267.403 442.795L251.119 432.827L235.364 437.15Z" fill="#263238"/>
<path d="M271.047 460.994L286.354 471.219L305.304 466.048L289.04 456.06L271.047 460.994Z" fill="#263238"/>
<path d="M288.897 472.916L304.204 483.141L324.254 477.654L307.99 467.686L288.897 472.916Z" fill="#263238"/>
<path d="M326.941 479.292L306.729 484.839L322.035 495.063L343.204 489.28L326.941 479.292Z" fill="#263238"/>
<path d="M196.874 430.892L212.181 441.117L229.889 436.261L214.583 426.036L196.874 430.892Z" fill="#263238"/>
<path d="M161.11 468.199L164.245 471.061L165.059 470.824L161.11 468.199Z" fill="#263238"/>
<path d="M153.009 440.525L170.717 435.669L161.802 429.708L144.053 434.524L153.009 440.525Z" fill="#263238"/>
<path d="M173.669 434.86L191.378 430.004L182.503 424.062L164.754 428.899L173.669 434.86Z" fill="#263238"/>
<path d="M185.475 423.273L194.349 429.195L212.058 424.339L203.204 418.437L185.475 423.273Z" fill="#263238"/>
<path d="M200.741 494.689L185.434 484.444L180.305 485.846L192.395 496.959L200.741 494.689Z" fill="#263238"/>
<path d="M256.981 564.309L210.165 380.519C209.099 376.34 206.8 372.554 203.55 369.623L77.3503 255.511C76.814 255.028 76.132 254.725 75.4046 254.646C74.6772 254.567 73.9428 254.716 73.3093 255.072C72.6759 255.427 72.1769 255.971 71.8857 256.622C71.5946 257.273 71.5265 257.998 71.6917 258.689L112.951 430.261L256.981 564.309Z" fill="#92CCE3" stroke="#263238" stroke-linecap="round" stroke-linejoin="round"/>
<path d="M186.229 362.102L200.66 374.34C200.66 374.34 205.158 375.208 209.657 397.059" stroke="#263238" stroke-width="0.5" stroke-linecap="round" stroke-linejoin="round"/>
<path d="M212.363 408.409L238.967 520.211" stroke="#263238" stroke-width="0.5" stroke-linecap="round" stroke-linejoin="round"/>
<path d="M134.466 357.108C140.715 371.833 140.145 386.025 133.183 388.808C126.222 391.592 115.495 381.9 109.246 367.095C102.997 352.291 103.567 338.178 110.529 335.414C117.49 332.651 128.217 342.382 134.466 357.108Z" fill="#92CCE3"/>
<path opacity="0.6" d="M134.466 357.108C140.715 371.833 140.145 386.025 133.183 388.808C126.222 391.592 115.495 381.9 109.246 367.095C102.997 352.291 103.567 338.178 110.529 335.414C117.49 332.651 128.217 342.382 134.466 357.108Z" fill="white"/>
<path d="M129.906 381.104C134.854 379.128 135.26 369.036 130.813 358.562C126.366 348.089 118.75 341.2 113.802 343.176C108.854 345.151 108.448 355.243 112.895 365.717C117.342 376.191 124.958 383.079 129.906 381.104Z" stroke="#263238" stroke-miterlimit="10"/>
<path d="M144.114 417.489C147.371 425.128 146.028 432.905 141.143 434.859C136.258 436.814 129.663 432.195 126.406 424.575C123.149 416.956 124.513 409.159 129.398 407.205C134.283 405.251 140.878 409.87 144.114 417.489Z" fill="#263238"/>
<path d="M137.376 430.419C134.303 430.419 130.965 427.714 129.235 423.49C128.26 421.318 127.922 418.928 128.258 416.582C128.347 415.603 128.698 414.664 129.277 413.857C129.855 413.051 130.64 412.405 131.555 411.982C134.995 410.601 139.392 413.502 141.549 418.575C143.686 423.648 142.669 428.701 139.229 430.083C138.639 430.309 138.01 430.423 137.376 430.419ZM133.305 413.621C132.956 413.617 132.609 413.685 132.288 413.818C131.703 414.122 131.208 414.567 130.852 415.109C130.495 415.652 130.289 416.275 130.252 416.917C129.961 418.93 130.257 420.981 131.107 422.839C132.756 426.787 136.114 429.274 138.435 428.346C140.755 427.418 141.305 423.332 139.636 419.424C138.109 415.97 135.341 413.621 133.305 413.621Z" fill="#92CCE3"/>
<g opacity="0.5">
<path d="M137.376 430.419C134.303 430.419 130.965 427.714 129.235 423.49C128.26 421.318 127.922 418.928 128.258 416.582C128.347 415.603 128.698 414.664 129.277 413.857C129.855 413.051 130.64 412.405 131.555 411.982C134.995 410.601 139.392 413.502 141.549 418.575C143.686 423.648 142.669 428.701 139.229 430.083C138.639 430.309 138.01 430.423 137.376 430.419ZM133.305 413.621C132.956 413.617 132.609 413.685 132.288 413.818C131.703 414.122 131.208 414.567 130.852 415.109C130.495 415.652 130.289 416.275 130.252 416.917C129.961 418.93 130.257 420.981 131.107 422.839C132.756 426.787 136.114 429.274 138.435 428.346C140.755 427.418 141.305 423.332 139.636 419.424C138.109 415.97 135.341 413.621 133.305 413.621Z" fill="white"/>
</g>
<path d="M180.407 419.937L168.825 437.702C168.526 438.134 168.367 438.643 168.367 439.163C168.367 439.683 168.526 440.191 168.825 440.623L193.617 475.68C193.834 475.991 194.116 476.255 194.445 476.453C194.774 476.652 195.142 476.782 195.526 476.834C195.909 476.886 196.3 476.859 196.673 476.756C197.045 476.652 197.391 476.474 197.688 476.233L210.532 466.067C211.044 465.667 211.389 465.101 211.505 464.474C211.621 463.847 211.5 463.2 211.163 462.652L185.088 420.036C184.855 419.638 184.52 419.306 184.114 419.071C183.709 418.837 183.248 418.708 182.776 418.698C182.305 418.688 181.838 418.797 181.423 419.014C181.008 419.232 180.658 419.549 180.407 419.937Z" fill="#263238"/>
<path d="M160.255 443.485C160.255 443.485 192.335 438.314 214.379 482.134L219.854 475.601C219.854 475.601 198.624 441.314 181.323 438.255C164.021 435.195 157.731 435.175 157.731 435.175L160.255 443.485Z" fill="#92CCE3"/>
<path opacity="0.5" d="M160.255 443.485C160.255 443.485 192.335 438.314 214.379 482.134L219.854 475.601C219.854 475.601 198.624 441.314 181.323 438.255C164.021 435.195 157.731 435.175 157.731 435.175L160.255 443.485Z" fill="white"/>
<path d="M21.9043 348.916L74.2567 337.447" stroke="#263238" stroke-linecap="round" stroke-linejoin="round"/>
<path d="M1 353.496L14.4138 350.555" stroke="#263238" stroke-linecap="round" stroke-linejoin="round"/>
<path d="M354.298 459.455C348.022 460.415 341.695 461.028 335.347 461.29C325.516 461.665 321.343 461.665 322.849 463.876C324.356 466.087 336.121 468.278 340.273 469.008C344.426 469.739 354.298 459.455 354.298 459.455Z" fill="white" stroke="#263238" stroke-miterlimit="10"/>
<path d="M723.451 539.299L705.926 530.416" stroke="#263238" stroke-linecap="round" stroke-linejoin="round"/>
<path d="M648.973 127.938C648.973 127.938 700.389 135.833 716.937 162.56C733.485 189.286 721.659 231.291 716.143 245.799C711.156 258.965 725.893 269.96 734.951 277.105C755.306 293.133 765.788 315.754 755.204 340.369C748.609 355.686 719.278 362.555 723.247 380.992C727.216 399.428 744.497 425.286 722.453 444.393C699.188 464.527 664.279 454.145 643.884 435.333C620.944 414.173 613.046 377.36 624.791 348.916C639.039 314.55 646.835 292.403 633.442 277.855C620.048 263.308 602.727 254.169 602.727 233.561C602.727 212.953 621.636 206.834 629.513 186.187C637.391 165.54 626.358 144.183 626.358 144.183L648.973 127.938Z" fill="#263238" stroke="#263238" stroke-linecap="round" stroke-linejoin="round"/>
<path d="M697.132 163.586C707.066 170.87 716.103 183.128 712.968 203.064C706.618 243.529 675.78 246.174 695.728 271.677C715.676 297.18 733.832 285.731 730.189 317.392C726.545 349.054 714.78 360.483 714.78 360.483" stroke="white" stroke-miterlimit="10"/>
<path d="M675.861 153.855C679.838 154.762 683.701 156.086 687.382 157.803" stroke="white" stroke-miterlimit="10"/>
<path d="M665.888 165.304C665.888 165.304 692.186 172.331 700.348 193.432C708.511 214.533 675.923 232.14 674.05 245.326" stroke="white" stroke-miterlimit="10"/>
<path d="M664.727 509.532C664.361 497.432 664.198 481.286 664.951 464.251C666.539 429.115 709.854 382.512 711.421 374.122C712.988 365.733 709.06 364.253 709.06 364.253L623.204 328.348C583.288 353.772 573.579 427.714 571.197 462.218L664.727 509.532Z" fill="#92CCE3" stroke="#263238" stroke-linecap="round" stroke-linejoin="round"/>
<path d="M699.737 366.484C699.737 366.484 706.943 370.846 699.737 377.834C692.532 384.821 672.706 414.529 664.564 431.998" stroke="#263238" stroke-width="0.5" stroke-linecap="round" stroke-linejoin="round"/>
<path d="M661.002 440.683C661.002 440.683 654.692 454.658 655.608 468.633C656.524 482.608 656.504 495.715 656.504 495.715" stroke="#263238" stroke-width="0.5" stroke-linecap="round" stroke-linejoin="round"/>
<path d="M492.587 347.515C496.373 357.068 500.933 377.617 497.9 389.361C496.333 395.461 491.081 408.271 486.42 419.187L602.177 477.851C602.055 454.48 602.361 417.588 605.434 410.739C609.973 400.455 646.327 303.536 644.108 281.507C641.89 259.479 597.923 227.896 597.923 227.896L604.661 174.206L564.541 197.715C564.541 197.715 559.982 218.994 555.443 224.146C550.904 229.298 513.797 236.621 503.192 249.806C492.587 262.992 496.373 303.418 496.373 305.609C496.373 307.8 488.801 338.04 492.587 347.515Z" fill="white"/>
<mask id="mask3_786_2410" style="mask-type:luminance" maskUnits="userSpaceOnUse" x="486" y="174" width="159" height="304">
<path d="M492.587 347.515C496.373 357.068 500.933 377.617 497.9 389.361C496.333 395.461 491.081 408.271 486.42 419.187L602.177 477.851C602.055 454.48 602.361 417.588 605.434 410.739C609.973 400.455 646.327 303.536 644.108 281.507C641.89 259.479 597.923 227.896 597.923 227.896L604.661 174.206L564.541 197.715C564.541 197.715 559.982 218.994 555.443 224.146C550.904 229.298 513.797 236.621 503.192 249.806C492.587 262.992 496.373 303.418 496.373 305.609C496.373 307.8 488.801 338.04 492.587 347.515Z" fill="white"/>
</mask>
<g mask="url(#mask3_786_2410)">
<g style="mix-blend-mode:multiply" opacity="0.5">
<path d="M644.047 281.428C641.767 259.4 597.862 227.817 597.862 227.817L604.66 174.206L564.541 197.715C564.541 197.715 563.218 203.854 561.305 210.348C563.89 210.131 566.78 209.776 570.017 209.223C585.323 206.598 593.445 201.327 593.445 201.327L585.303 234.528C585.303 234.528 626.745 258.215 637.554 286.955C639.019 290.903 640.586 294.594 642.194 298.266C643.565 292.755 644.187 287.095 644.047 281.428Z" fill="#92CCE3"/>
</g>
</g>
<path d="M492.587 347.515C496.373 357.068 500.933 377.617 497.9 389.361C496.333 395.461 491.081 408.271 486.42 419.187L602.177 477.851C602.055 454.48 602.361 417.588 605.434 410.739C609.973 400.455 646.327 303.536 644.108 281.507C641.89 259.479 597.923 227.896 597.923 227.896L604.661 174.206L564.541 197.715C564.541 197.715 559.982 218.994 555.443 224.146C550.904 229.298 513.797 236.621 503.192 249.806C492.587 262.992 496.373 303.418 496.373 305.609C496.373 307.8 488.801 338.04 492.587 347.515Z" stroke="#263238" stroke-linecap="round" stroke-linejoin="round"/>
<path d="M492.587 347.515C496.373 357.068 500.933 377.617 497.9 389.361C496.333 395.461 491.081 408.271 486.42 419.187L602.177 477.851C602.055 454.48 602.361 417.588 605.434 410.739C609.973 400.455 646.327 303.536 644.108 281.507C642.704 267.789 625.158 250.399 612.111 239.207C599.267 252.412 571.401 277.046 551.046 266.072C532.727 256.202 533.887 241.2 536.594 232.278C524.219 236.7 509.421 242.345 503.335 249.925C492.73 263.15 496.516 303.536 496.516 305.727C496.516 307.918 488.801 338.04 492.587 347.515Z" fill="#263238" stroke="#263238" stroke-linecap="round" stroke-linejoin="round"/>
<path d="M560.206 321.42L535.007 309.952C535.007 309.952 527.903 298.503 523.974 298.503C520.046 298.503 517.664 314.551 517.664 314.551C517.664 314.551 504.291 326.769 509.014 338.988C513.736 351.206 531.058 369.544 552.329 362.674C573.599 355.805 567.289 334.428 567.289 334.428C567.289 334.428 575.961 319.92 575.961 316.86C575.961 313.801 560.206 321.42 560.206 321.42Z" fill="white" stroke="#263238" stroke-linecap="round" stroke-linejoin="round"/>
<path d="M506.226 84.6109C506.226 84.6109 511.538 111.061 510.765 129.418C509.991 147.776 502.44 155.079 504.658 163.192C506.877 171.305 534.193 201.387 550.843 204.308C567.494 207.23 606.88 182.28 618.238 171.265C629.596 160.251 631.102 144.104 629.596 137.492C628.09 130.879 622.024 78.0181 599.308 56.7197C576.592 35.4213 516.831 37.6321 506.226 84.6109Z" fill="white"/>
<mask id="mask4_786_2410" style="mask-type:luminance" maskUnits="userSpaceOnUse" x="504" y="43" width="127" height="162">
<path d="M506.226 84.6109C506.226 84.6109 511.538 111.061 510.765 129.418C509.991 147.776 502.44 155.079 504.658 163.192C506.877 171.305 534.193 201.387 550.843 204.308C567.494 207.23 606.88 182.28 618.238 171.265C629.596 160.251 631.102 144.104 629.596 137.492C628.09 130.879 622.024 78.0181 599.308 56.7197C576.592 35.4213 516.831 37.6321 506.226 84.6109Z" fill="white"/>
</mask>
<g mask="url(#mask4_786_2410)">
<g style="mix-blend-mode:multiply" opacity="0.5">
<path d="M599.43 56.7201C590.942 48.8245 577.263 44.0871 562.913 43.791L561.977 71.1888C561.977 71.1888 557.458 98.2707 573.681 120.102C589.904 141.933 604.315 148.072 606.106 156.797C607.897 165.522 599.755 174.207 579.075 189.129C570.988 195.065 562.323 200.221 553.204 204.526C570.933 205.138 607.47 181.826 618.339 171.266C629.697 160.251 631.203 144.105 629.697 137.492C628.191 130.88 622.085 78.0185 599.43 56.7201Z" fill="#92CCE3"/>
</g>
</g>
<path d="M506.226 84.6109C506.226 84.6109 511.538 111.061 510.765 129.418C509.991 147.776 502.44 155.079 504.658 163.192C506.877 171.305 534.193 201.387 550.843 204.308C567.494 207.23 606.88 182.28 618.238 171.265C629.596 160.251 631.102 144.104 629.596 137.492C628.09 130.879 622.024 78.0181 599.308 56.7197C576.592 35.4213 516.831 37.6321 506.226 84.6109Z" stroke="#263238" stroke-linecap="round" stroke-linejoin="round"/>
<path d="M535.007 138.952C535.007 138.952 532.727 152.908 528.9 157.309C531.871 159.823 535.58 161.369 539.505 161.731" stroke="#263238" stroke-linecap="round" stroke-linejoin="round"/>
<path d="M536.513 174.206C541.446 176.326 546.822 177.299 552.212 177.045C557.602 176.791 562.855 175.319 567.554 172.745" stroke="#263238" stroke-linecap="round" stroke-linejoin="round"/>
<path d="M563.768 131.609C563.768 134.056 562.587 136.03 561.122 136.03C559.656 136.03 558.476 134.056 558.476 131.609C558.476 129.161 559.656 127.207 561.122 127.207C562.587 127.207 563.768 129.181 563.768 131.609Z" fill="#263238"/>
<path d="M526.295 125.747C526.295 128.174 525.115 130.148 523.649 130.148C522.183 130.148 521.003 128.174 521.003 125.747C521.003 123.319 522.183 121.345 523.649 121.345C525.115 121.345 526.295 123.319 526.295 125.747Z" fill="#263238"/>
<path d="M516.077 106.659C518.2 105.374 520.569 104.516 523.041 104.136C525.513 103.756 528.039 103.863 530.468 104.449" stroke="#263238" stroke-linecap="round" stroke-linejoin="round"/>
<path d="M551.657 107.39C551.657 107.39 556.196 105.179 566.048 111.061" stroke="#263238" stroke-linecap="round" stroke-linejoin="round"/>
<path d="M556.196 64.7923C556.196 64.7923 535.007 81.6889 524.402 91.9532C513.797 102.217 509.258 109.58 493.361 102.987C477.464 96.3944 466.086 73.5959 487.255 46.435C508.424 19.2741 549.357 11.1811 589.476 22.1955C629.596 33.2098 646.286 58.1797 649.299 85.3603C652.311 112.541 646.246 142.623 631.997 150.716C617.749 158.809 585.792 125.746 574.434 105.178C567.317 92.1799 561.22 78.6796 556.196 64.7923Z" fill="#263238" stroke="#263238" stroke-linecap="round" stroke-linejoin="round"/>
<path d="M556.196 64.793C556.196 64.793 499.019 72.9649 496.312 85.2623C493.605 97.5597 510.825 94.0659 510.825 94.0659" stroke="white" stroke-miterlimit="10"/>
<path d="M488.944 72.9053C485.077 80.9193 488.15 86.1502 488.15 86.1502" stroke="white" stroke-miterlimit="10"/>
<path d="M613.291 38.6582C613.291 38.6582 557.967 29.8743 557.967 53.6006C557.967 53.6006 524.422 42.1717 502.663 58.0024C499.397 60.3112 496.401 62.9587 493.728 65.898" stroke="white" stroke-miterlimit="10"/>
<path d="M560.756 58.8906C560.756 58.8906 574.862 103.027 604.295 114.298" stroke="white" stroke-miterlimit="10"/>
<path d="M590.107 70.7539C601.445 79.8339 617.668 88.7954 636.923 87.9071" stroke="white" stroke-miterlimit="10"/>
<path d="M572.479 52.7324C575.13 56.2681 578.042 59.6127 581.191 62.7401" stroke="white" stroke-miterlimit="10"/>
<path d="M589.517 125.016L628.903 118.403V123.535L589.517 133.089V125.016Z" fill="#92CCE3" stroke="#263238" stroke-linecap="round" stroke-linejoin="round"/>
<path d="M657.971 129.587C661.048 111.02 653.834 94.4554 641.858 92.589C629.882 90.7225 617.679 104.261 614.602 122.828C611.525 141.395 618.739 157.959 630.715 159.826C642.691 161.692 654.894 148.154 657.971 129.587Z" fill="#92CCE3" stroke="#263238" stroke-linecap="round" stroke-linejoin="round"/>
<path d="M664.3 130.326C661.715 145.959 652.739 157.546 644.292 156.224C635.844 154.901 631.061 141.183 633.646 125.549C636.231 109.916 645.187 98.3488 653.655 99.6714C662.122 100.994 666.885 114.712 664.3 130.326Z" fill="#92CCE3" stroke="#263238" stroke-linecap="round" stroke-linejoin="round"/>
<path d="M652.352 64.7928C653.815 85.342 651.506 105.98 645.533 125.747C645.533 125.747 644.78 137.59 656.138 132.359C667.496 127.129 665.989 82.4197 664.463 64.0624C662.936 45.7051 648.586 50.8373 652.352 64.7928Z" fill="white" stroke="#263238" stroke-linecap="round" stroke-linejoin="round"/>
<path d="M609.973 30.269C609.973 30.269 627.377 25.8672 636.435 41.3031C645.492 56.739 644.007 70.6747 656.789 72.1354C669.572 73.5961 670.427 59.6604 663.608 42.0334C656.789 24.4065 642.419 11.1813 622.716 9.72066C603.012 8.25997 593.323 23.6761 593.323 23.6761C593.323 23.6761 603.908 25.1368 609.973 30.269Z" fill="#92CCE3" stroke="#263238" stroke-linecap="round" stroke-linejoin="round"/>
<path d="M608.446 304.918L556.196 420.214C556.196 420.214 413.835 445.874 400.97 445.874C388.106 445.874 362.296 454.678 357.045 457.718C351.793 460.757 300.316 483.674 310.229 485.096C316.335 485.984 332.131 477.555 332.131 477.555C332.131 477.555 307.135 489.399 309.394 492.972C311.654 496.544 341.962 481.957 341.962 481.957C341.962 481.957 314.259 497.748 319.938 498.637C325.108 499.525 331.357 496.663 336.67 492.972C341.303 490.214 346.293 488.063 351.508 486.576C351.508 486.576 339.296 494.472 337.85 498.064C336.405 501.657 340.883 499.525 345.422 498.064C353.917 494.512 362.128 490.355 369.991 485.629C373.003 483.418 382.102 479.016 388.167 473.884L400.278 463.6C400.278 463.6 481.29 465.791 518.336 464.33C555.382 462.87 573.619 459.198 587.257 445.973C600.895 432.748 639.508 349.035 648.586 326.276C657.664 303.516 651.619 290.291 642.48 274.954" fill="white"/>
<mask id="mask5_786_2410" style="mask-type:luminance" maskUnits="userSpaceOnUse" x="308" y="274" width="346" height="227">
<path d="M608.446 304.918L556.196 420.214C556.196 420.214 413.835 445.874 400.97 445.874C388.106 445.874 362.296 454.678 357.045 457.718C351.793 460.757 300.316 483.674 310.229 485.096C316.335 485.984 332.131 477.555 332.131 477.555C332.131 477.555 307.135 489.399 309.394 492.972C311.654 496.544 341.962 481.957 341.962 481.957C341.962 481.957 314.259 497.748 319.938 498.637C325.108 499.525 331.357 496.663 336.67 492.972C341.303 490.214 346.293 488.063 351.508 486.576C351.508 486.576 339.296 494.472 337.85 498.064C336.405 501.657 340.883 499.525 345.422 498.064C353.917 494.512 362.128 490.355 369.991 485.629C373.003 483.418 382.102 479.016 388.167 473.884L400.278 463.6C400.278 463.6 481.29 465.791 518.336 464.33C555.382 462.87 573.619 459.198 587.257 445.973C600.895 432.748 639.508 349.035 648.586 326.276C657.664 303.516 651.619 290.291 642.48 274.954" fill="white"/>
</mask>
<g mask="url(#mask5_786_2410)">
<g style="mix-blend-mode:multiply" opacity="0.5">
<path d="M610.564 380.459C586.138 425.01 565.519 438.985 543.902 449.546C522.285 460.106 403.353 462.652 403.353 462.652L408.36 463.817C429.834 464.33 488.395 465.534 518.275 464.35C555.382 462.889 573.559 459.218 587.197 445.993C600.834 432.767 639.447 349.054 648.525 326.295C652.739 315.754 653.675 307.267 652.596 299.647L647.447 302.786C636.777 329.374 624.461 355.312 610.564 380.459Z" fill="#92CCE3"/>
</g>
</g>
<path d="M608.446 304.918L556.196 420.214C556.196 420.214 413.835 445.874 400.97 445.874C388.106 445.874 362.296 454.678 357.045 457.718C351.793 460.757 300.316 483.674 310.229 485.096C316.335 485.984 332.131 477.555 332.131 477.555C332.131 477.555 307.135 489.399 309.394 492.972C311.654 496.544 341.962 481.957 341.962 481.957C341.962 481.957 314.259 497.748 319.938 498.637C325.108 499.525 331.357 496.663 336.67 492.972C341.303 490.214 346.293 488.063 351.508 486.576C351.508 486.576 339.296 494.472 337.85 498.064C336.405 501.657 340.883 499.525 345.422 498.064C353.917 494.512 362.128 490.355 369.991 485.629C373.003 483.418 382.102 479.016 388.167 473.884L400.278 463.6C400.278 463.6 481.29 465.791 518.336 464.33C555.382 462.87 573.619 459.198 587.257 445.973C600.895 432.748 639.508 349.035 648.586 326.276C657.664 303.516 651.619 290.291 642.48 274.954" stroke="#263238" stroke-miterlimit="10"/>
<path d="M607.571 302.016L591.674 341.988C603.357 335.947 625.28 327.835 642.764 340.014C645.227 334.408 647.242 329.67 648.586 326.295C657.684 303.536 651.619 290.311 642.479 274.974" fill="#263238"/>
<path d="M607.571 302.016L591.674 341.988C603.357 335.947 625.28 327.835 642.764 340.014C645.227 334.408 647.242 329.67 648.586 326.295C657.684 303.536 651.619 290.311 642.479 274.974" stroke="#263238" stroke-linecap="round" stroke-linejoin="round"/>
<path d="M79.04 264.255L181.73 356.87" stroke="#263238" stroke-width="0.5" stroke-linecap="round" stroke-linejoin="round"/>
</svg>
