<svg width="802" height="631" viewBox="0 0 802 631" fill="none" xmlns="http://www.w3.org/2000/svg">
<path d="M712.215 533.252C712.215 533.252 802 456.862 802 356.055C802 255.248 743.725 255.228 693.306 125.385C642.887 -4.45823 499.549 -21.2561 412.919 19.9787C339.398 54.9957 318.412 160.52 255.394 180.378C192.376 200.235 186.188 151.362 85.269 177.318C-15.6498 203.275 36.4176 345.357 36.4176 345.357L231.823 287.304L712.215 533.252Z" fill="#92CCE3"/>
<path opacity="0.7" d="M712.215 533.252C712.215 533.252 802 456.862 802 356.055C802 255.248 743.725 255.228 693.306 125.385C642.887 -4.45823 499.549 -21.2561 412.919 19.9787C339.398 54.9957 318.412 160.52 255.394 180.378C192.376 200.235 186.188 151.362 85.269 177.318C-15.6498 203.275 36.4176 345.357 36.4176 345.357L231.823 287.304L712.215 533.252Z" fill="white"/>
<path d="M363.986 532.956L228.301 585.6L70.8779 432.938L174.015 418.47L363.986 532.956Z" fill="#92CCE3"/>
<path opacity="0.5" d="M363.986 532.956L228.301 585.6L70.8779 432.938L174.015 418.47L363.986 532.956Z" fill="white"/>
<path d="M530.896 602.714C548.882 602.714 563.463 593.284 563.463 581.652C563.463 570.02 548.882 560.591 530.896 560.591C512.909 560.591 498.328 570.02 498.328 581.652C498.328 593.284 512.909 602.714 530.896 602.714Z" fill="#92CCE3"/>
<path opacity="0.5" d="M530.896 602.714C548.882 602.714 563.463 593.284 563.463 581.652C563.463 570.02 548.882 560.591 530.896 560.591C512.909 560.591 498.328 570.02 498.328 581.652C498.328 593.284 512.909 602.714 530.896 602.714Z" fill="white"/>
<path d="M403.353 462.073L602.178 477.351L558.049 455.323L403.353 462.073Z" fill="#92CCE3"/>
<path opacity="0.5" d="M403.353 462.073L602.178 477.351L558.049 455.323L403.353 462.073Z" fill="white"/>
<path d="M448.133 402.679L389.145 398.001L396.554 389.513H430.485L448.133 402.679Z" fill="#92CCE3"/>
<path opacity="0.5" d="M448.133 402.679L389.145 398.001L396.554 389.513H430.485L448.133 402.679Z" fill="white"/>
<path d="M639.407 631C662.261 631 680.788 620.104 680.788 606.662C680.788 593.22 662.261 582.324 639.407 582.324C616.552 582.324 598.025 593.22 598.025 606.662C598.025 620.104 616.552 631 639.407 631Z" fill="#92CCE3"/>
<path opacity="0.5" d="M639.407 631C662.261 631 680.788 620.104 680.788 606.662C680.788 593.22 662.261 582.324 639.407 582.324C616.552 582.324 598.025 593.22 598.025 606.662C598.025 620.104 616.552 631 639.407 631Z" fill="white"/>
<path d="M394.193 550.149L371.904 585.66L421.265 594.937L440.378 559.427L394.193 550.149Z" fill="white" stroke="#263238" stroke-linecap="round" stroke-linejoin="round"/>
<path d="M432.419 510.02L410.131 542.431L456.295 556.328L475.409 523.916L432.419 510.02Z" fill="#92CCE3"/>
<mask id="mask0_786_2410" style="mask-type:luminance" maskUnits="userSpaceOnUse" x="410" y="510" width="66" height="47">
<path d="M432.419 510.02L410.131 542.431L456.295 556.328L475.409 523.916L432.419 510.02Z" fill="white"/>
</mask>
<g mask="url(#mask0_786_2410)">
<path opacity="0.5" d="M432.419 510.02L410.131 542.431L456.295 556.328L475.409 523.916L432.419 510.02Z" fill="white" stroke="#263238" stroke-miterlimit="10"/>
</g>
<path d="M432.419 510.02L410.131 542.431L456.295 556.328L475.409 523.916L432.419 510.02Z" stroke="#263238" stroke-linecap="round" stroke-linejoin="round"/>
<path d="M481.78 571.784L441.966 582.581L457.883 607.294L504.068 596.477L481.78 571.784Z" fill="#92CCE3" stroke="#263238" stroke-linecap="round" stroke-linejoin="round"/>
<path d="M595.358 565.447L599.429 595.43C599.429 607.846 615.001 617.933 634.216 617.933C653.43 617.933 669.022 607.846 669.022 595.43L673.215 565.447H595.358Z" fill="#92CCE3" stroke="#263238" stroke-linecap="round" stroke-linejoin="round"/>
<path d="M634.257 590.654C655.784 590.654 673.236 579.368 673.236 565.447C673.236 551.526 655.784 540.24 634.257 540.24C612.729 540.24 595.277 551.526 595.277 565.447C595.277 579.368 612.729 590.654 634.257 590.654Z" fill="#92CCE3" stroke="#263238" stroke-linecap="round" stroke-linejoin="round"/>
<path d="M634.256 586.883C652.569 586.883 667.414 577.286 667.414 565.447C667.414 553.608 652.569 544.01 634.256 544.01C615.944 544.01 601.099 553.608 601.099 565.447C601.099 577.286 615.944 586.883 634.256 586.883Z" fill="#92CCE3" stroke="#263238" stroke-linecap="round" stroke-linejoin="round"/>
<path d="M634.257 586.903C652.255 586.903 666.845 579.038 666.845 569.335C666.845 559.633 652.255 551.768 634.257 551.768C616.259 551.768 601.669 559.633 601.669 569.335C601.669 579.038 616.259 586.903 634.257 586.903Z" fill="#263238" stroke="#263238" stroke-linecap="round" stroke-linejoin="round"/>
<path d="M646.001 507.908C640.343 504.374 631.753 504.69 628.313 511.224C623.224 520.738 626.868 538.365 625.036 540.832C623.204 543.3 617.769 544.01 615.225 538.72C612.68 533.43 612.68 526.383 609.403 526.028C606.126 525.673 601.77 527.094 601.038 535.207C600.305 543.32 601.77 552.478 607.592 556.703C613.413 560.927 619.947 559.525 621.84 561.302C623.733 563.078 621.84 565.842 621.84 567.658C621.84 575.553 632.486 579.501 639.223 577.527C649.034 574.704 647.955 565.171 649.4 561.302C650.846 557.433 658.865 557.058 661.776 551.077C664.687 545.096 669.043 533.075 662.855 528.495C656.667 523.916 651.945 526.028 651.232 530.963C650.385 534.881 649.017 538.677 647.161 542.254C651.517 533.904 655.792 514.027 646.001 507.908Z" fill="#92CCE3"/>
<mask id="mask1_786_2410" style="mask-type:luminance" maskUnits="userSpaceOnUse" x="600" y="505" width="66" height="74">
<path d="M646.001 507.908C640.343 504.374 631.753 504.69 628.313 511.224C623.224 520.738 626.868 538.365 625.036 540.832C623.204 543.3 617.769 544.01 615.225 538.72C612.68 533.43 612.68 526.383 609.403 526.028C606.126 525.673 601.77 527.094 601.038 535.207C600.305 543.32 601.77 552.478 607.592 556.703C613.413 560.927 619.947 559.525 621.84 561.302C623.733 563.078 621.84 565.842 621.84 567.658C621.84 575.553 632.486 579.501 639.223 577.527C649.034 574.704 647.955 565.171 649.4 561.302C650.846 557.433 658.865 557.058 661.776 551.077C664.687 545.096 669.043 533.075 662.855 528.495C656.667 523.916 651.945 526.028 651.232 530.963C650.385 534.881 649.017 538.677 647.161 542.254C651.517 533.904 655.792 514.027 646.001 507.908Z" fill="white"/>
</mask>
<g mask="url(#mask1_786_2410)">
<path opacity="0.2" d="M646.001 507.908C640.343 504.374 631.753 504.69 628.313 511.224C623.224 520.738 626.868 538.365 625.036 540.832C623.204 543.3 617.769 544.01 615.225 538.72C612.68 533.43 612.68 526.383 609.403 526.028C606.126 525.673 601.77 527.094 601.038 535.207C600.305 543.32 601.77 552.478 607.592 556.703C613.413 560.927 619.947 559.525 621.84 561.302C623.733 563.078 621.84 565.842 621.84 567.658C621.84 575.553 632.486 579.501 639.223 577.527C649.034 574.704 647.955 565.171 649.4 561.302C650.846 557.433 658.865 557.058 661.776 551.077C664.687 545.096 669.043 533.075 662.855 528.495C656.667 523.916 651.945 526.028 651.232 530.963C650.385 534.881 649.017 538.677 647.161 542.254C651.517 533.904 655.792 514.027 646.001 507.908Z" fill="black"/>
</g>
<path d="M646.001 507.908C640.343 504.374 631.753 504.69 628.313 511.224C623.224 520.738 626.868 538.365 625.036 540.832C623.204 543.3 617.769 544.01 615.225 538.72C612.68 533.43 612.68 526.383 609.403 526.028C606.126 525.673 601.77 527.094 601.038 535.207C600.305 543.32 601.77 552.478 607.592 556.703C613.413 560.927 619.947 559.525 621.84 561.302C623.733 563.078 621.84 565.842 621.84 567.658C621.84 575.553 632.486 579.501 639.223 577.527C649.034 574.704 647.955 565.171 649.4 561.302C650.846 557.433 658.865 557.058 661.776 551.077C664.687 545.096 669.043 533.075 662.855 528.495C656.667 523.916 651.945 526.028 651.232 530.963C650.385 534.881 649.017 538.677 647.161 542.254C651.517 533.904 655.792 514.027 646.001 507.908Z" stroke="#263238" stroke-linecap="round" stroke-linejoin="round"/>
<path d="M637.046 510.513C635.394 511.567 634.012 512.971 633.004 514.619C631.995 516.268 631.387 518.117 631.224 520.027C630.858 526.383 631.224 546.478 628.68 549.3C626.135 552.123 617.77 551.412 612.396 546.478C607.022 541.543 609.404 530.983 609.404 530.983" stroke="#263238" stroke-width="0.5" stroke-linecap="round" stroke-linejoin="round"/>
<path d="M611.012 552.695C612.897 554.118 615.077 555.128 617.403 555.656C623.957 557.058 628.68 553.899 629.779 557.058C630.878 560.216 628.68 571.526 628.68 571.526" stroke="#263238" stroke-width="0.5" stroke-linecap="round" stroke-linejoin="round"/>
<path d="M607.226 548.945C607.903 549.872 608.681 550.725 609.546 551.492" stroke="#263238" stroke-width="0.5" stroke-linecap="round" stroke-linejoin="round"/>
<path d="M636.923 565.743C637.29 560.486 637.331 555.213 637.045 549.952C636.394 542.056 640.18 527.39 641.116 520.758" stroke="#263238" stroke-width="0.5" stroke-linecap="round" stroke-linejoin="round"/>
<path d="M636.312 573.994C636.312 573.994 636.516 571.842 636.74 568.684" stroke="#263238" stroke-width="0.5" stroke-linecap="round" stroke-linejoin="round"/>
<path d="M661.491 538.661C661.674 536.944 661.776 535.897 661.776 535.897" stroke="#263238" stroke-width="0.5" stroke-linecap="round" stroke-linejoin="round"/>
<path d="M644.312 567.638C644.312 567.638 645.777 556.012 648.688 553.821C651.599 551.63 659.944 550.287 660.677 544.997C660.799 544.168 660.901 543.379 661.002 542.648" stroke="#263238" stroke-width="0.5" stroke-linecap="round" stroke-linejoin="round"/>
<path d="M656.688 531.318C655.925 531.814 655.317 532.503 654.929 533.31C654.542 534.118 654.39 535.013 654.49 535.898C654.639 538.011 654.175 540.122 653.149 541.992C652.124 543.863 650.579 545.416 648.688 546.478" stroke="#263238" stroke-width="0.5" stroke-linecap="round" stroke-linejoin="round"/>
<path d="M641.524 516.731C641.633 514.757 641.592 512.778 641.401 510.81" stroke="#263238" stroke-width="0.5" stroke-linecap="round" stroke-linejoin="round"/>
<path d="M502.908 508.993L508.302 564.065V569.888C508.302 577.783 519.742 584.041 533.868 584.041C547.994 584.041 559.433 577.704 559.433 569.888V564.065L564.339 508.42L502.908 508.993Z" fill="white" stroke="#263238" stroke-linecap="round" stroke-linejoin="round"/>
<path d="M559.677 561.084L562.506 529.008C558.7 534.752 547.342 538.878 533.908 538.878C519.761 538.878 507.935 534.259 504.78 528.041L507.996 560.887C513.207 565.091 522.835 567.934 533.908 567.934C544.981 567.934 554.466 565.229 559.677 561.084Z" fill="#92CCE3" stroke="#263238" stroke-linecap="round" stroke-linejoin="round"/>
<path d="M503.926 519.376V519.001L503.661 516.79L503.926 519.376Z" fill="white" stroke="#263238" stroke-linecap="round" stroke-linejoin="round"/>
<path d="M565.315 500.821C559.901 494.189 547.871 489.55 533.867 489.55C519.863 489.55 507.833 494.189 502.399 500.821H499.325V508.717C499.325 519.297 514.795 527.864 533.928 527.864C553.062 527.864 568.531 519.297 568.531 508.717V500.821H565.315Z" fill="#92CCE3" stroke="#263238" stroke-linecap="round" stroke-linejoin="round"/>
<path opacity="0.2" d="M565.315 500.821C559.901 494.189 547.871 489.55 533.867 489.55C519.863 489.55 507.833 494.189 502.399 500.821H499.325V508.717C499.325 519.297 514.795 527.864 533.928 527.864C553.062 527.864 568.531 519.297 568.531 508.717V500.821H565.315Z" fill="black"/>
<path d="M533.867 519.968C552.944 519.968 568.409 511.396 568.409 500.821C568.409 490.247 552.944 481.674 533.867 481.674C514.79 481.674 499.325 490.247 499.325 500.821C499.325 511.396 514.79 519.968 533.867 519.968Z" fill="white" stroke="#263238" stroke-linecap="round" stroke-linejoin="round"/>
<path d="M561.346 490.142C556.604 484.339 546.101 480.273 533.867 480.273C521.634 480.273 511.131 484.319 506.388 490.142H503.763V497.012C503.763 506.25 517.258 513.731 533.928 513.731C550.599 513.731 564.094 506.25 564.094 497.012V490.142H561.346Z" fill="#92CCE3" stroke="#263238" stroke-linecap="round" stroke-linejoin="round"/>
<path d="M533.868 506.861C550.528 506.861 564.034 499.376 564.034 490.142C564.034 480.909 550.528 473.423 533.868 473.423C517.208 473.423 503.702 480.909 503.702 490.142C503.702 499.376 517.208 506.861 533.868 506.861Z" fill="white" stroke="#263238" stroke-linecap="round" stroke-linejoin="round"/>
<path d="M691.195 522.478L263.908 306" stroke="#263238" stroke-linecap="round" stroke-linejoin="round"/>
<path d="M224.397 328.218C224.397 328.218 226.789 326.726 241.777 333.005C256.766 339.284 259.495 339.449 271.512 338.093C276.068 337.579 279.663 336.555 283.553 334.737C291.394 331.07 282.656 326.125 283.192 323.131C283.727 320.138 285.913 320.39 289.227 320.203C294.769 319.891 298.039 324.188 300.119 329.334C304.167 339.348 291.913 346.292 281.386 348.712C264.839 352.514 244.774 346.03 237.689 342.886C234.426 341.548 231.271 339.98 228.248 338.193L224.397 328.218Z" fill="white" stroke="#263238" stroke-linecap="round" stroke-linejoin="round"/>
<path d="M195.531 333.908C195.531 333.908 215.234 356.055 223.885 349.936C232.536 343.817 231.762 323.979 223.885 317.86C216.007 311.741 193.963 323.209 195.531 333.908Z" fill="white" stroke="#263238" stroke-linecap="round" stroke-linejoin="round"/>
<path d="M255.434 272.796C255.434 272.796 256.228 293.423 250.712 307.161C245.196 320.9 234.957 330.078 233.39 337.717C231.823 345.356 232.596 356.055 224.719 359.114C216.842 362.174 216.842 356.825 217.636 350.706C218.429 344.587 219.997 321.689 219.997 321.689L193.963 336.948C193.963 336.948 201.046 356.055 186.086 358.345C171.125 360.634 153.009 338.487 150.648 321.748C148.287 305.01 157.732 267.506 174.28 257.577C190.828 247.648 212.079 249.188 223.131 249.188C234.184 249.188 250.671 256.768 255.434 272.796Z" fill="white" stroke="#263238" stroke-linecap="round" stroke-linejoin="round"/>
<path d="M192.64 251.596C192.64 251.596 188.569 253.57 181.466 264.407C174.362 275.244 188.569 284.58 196.202 279.665C203.835 274.75 197.2 264.407 202.797 259.472C206.018 256.823 208.178 253.163 208.904 249.129L192.64 251.596Z" fill="#263238"/>
<path d="M169.802 266.854C167.982 268.114 166.454 269.729 165.315 271.595C164.175 273.461 163.451 275.537 163.187 277.691C162.678 284.579 175.4 271.769 176.906 265.847C178.412 259.925 169.802 266.854 169.802 266.854Z" fill="#263238"/>
<path d="M215.233 251.418C213.427 254.6 212.546 258.198 212.686 261.828C212.826 265.458 213.981 268.983 216.027 272.025C223.111 282.724 238.865 287.303 245.155 279.664C251.444 272.025 253.826 268.216 251.465 264.406C249.104 260.597 226.266 245.299 215.233 251.418Z" fill="#92CCE3" stroke="#263238" stroke-linecap="round" stroke-linejoin="round"/>
<path d="M273.509 213.993C270.519 214.308 267.495 213.993 264.642 213.07C261.79 212.146 259.176 210.637 256.981 208.643C249.104 201.774 242 186.496 238.865 187.246C235.731 187.996 224.617 210.163 224.617 210.163C224.617 210.163 205.707 211.703 204.14 217.033C202.573 222.362 211.224 247.589 218.388 258.287C221.729 263.053 226.177 266.991 231.374 269.785C236.571 272.579 242.372 274.151 248.31 274.374C257.754 274.374 286.109 276.664 290.057 267.485C294.006 258.307 290.831 230.83 290.831 230.83C290.831 230.83 303.451 218.612 297.935 216.322C292.419 214.032 273.509 213.993 273.509 213.993Z" fill="white" stroke="#263238" stroke-linecap="round" stroke-linejoin="round"/>
<path d="M269.683 252.208C268.726 251.003 267.81 249.78 266.914 248.516C265.429 246.385 261.907 243.128 255.129 245.2C245.481 248.141 238.845 257.044 249.552 264.406C259.627 271.414 279.86 265.097 269.683 252.208Z" fill="#263238"/>
<path d="M224.679 210.164C224.679 210.164 235.711 216.283 242.001 213.993C248.29 211.703 244.362 185.727 238.866 187.247C233.37 188.767 223.885 200.235 224.679 210.164Z" fill="white" stroke="#263238" stroke-linecap="round" stroke-linejoin="round"/>
<path d="M297.935 216.283C297.935 216.283 287.758 215.513 281.387 222.382C275.016 229.251 279.026 236.199 287.697 237.66C296.368 239.121 301.07 216.283 297.935 216.283Z" fill="white" stroke="#263238" stroke-linecap="round" stroke-linejoin="round"/>
<path d="M236.505 259.057C236.505 259.057 226.327 251.418 228.627 257.517C230.928 263.617 234.917 264.406 238.805 262.867C242.693 261.327 236.505 259.057 236.505 259.057Z" fill="#92CCE3" stroke="#263238" stroke-linecap="round" stroke-linejoin="round"/>
<path d="M230.886 239.91C230.296 241.884 228.627 243.266 227.161 242.871C225.696 242.476 224.983 240.502 225.574 238.469C226.164 236.436 227.833 235.113 229.299 235.508C230.764 235.903 231.477 237.897 230.886 239.91Z" fill="#263238"/>
<path d="M255.17 257.932C253.277 258.998 251.099 258.84 250.366 257.557C249.633 256.274 250.488 254.399 252.402 253.333C253.101 252.794 253.984 252.531 254.875 252.597C255.766 252.663 256.598 253.053 257.205 253.689C257.938 254.972 257.042 256.867 255.17 257.932Z" fill="white"/>
<path d="M184.519 306.412C184.519 306.412 182.158 323.209 185.292 330.098C188.427 336.987 191.602 362.944 197.912 363.655C204.222 364.365 201.841 349.837 201.841 347.607C201.841 345.376 202.635 320.88 202.635 320.88C202.635 320.88 208.151 309.412 211.285 303.312" fill="white"/>
<path d="M184.519 306.412C184.519 306.412 182.158 323.209 185.292 330.098C188.427 336.987 191.602 362.944 197.912 363.655C204.222 364.365 201.841 349.837 201.841 347.607C201.841 345.376 202.635 320.88 202.635 320.88C202.635 320.88 208.151 309.412 211.285 303.312" stroke="#263238" stroke-linecap="round" stroke-linejoin="round"/>
<path d="M158.525 305.641C158.525 305.641 179.796 299.522 182.157 322.439" stroke="#263238" stroke-linecap="round" stroke-linejoin="round"/>
<path d="M219.956 321.748C219.956 321.748 238.072 312.569 238.866 292.712" stroke="#263238" stroke-linecap="round" stroke-linejoin="round"/>
<path d="M279.025 392.71L368.81 448.848L442.657 419.634L343.184 370.603L279.025 392.71Z" fill="#263238" stroke="#263238" stroke-linecap="round" stroke-linejoin="round"/>
<path d="M336.731 381.005L300.947 393.263" stroke="white" stroke-width="0.5" stroke-linecap="round" stroke-linejoin="round"/>
<path d="M306.565 397.349L371.131 436.827L423.748 417.088" stroke="white" stroke-width="0.5" stroke-linecap="round" stroke-linejoin="round"/>
<path d="M495.07 354.555C479.703 358.917 419.005 376.149 413.366 377.432C409.874 378.257 406.332 378.87 402.762 379.268C402.762 379.268 381.552 370.445 375.873 366.418C370.194 362.391 363.375 364.937 359.976 366.418C356.577 367.898 353.869 378.163 360.363 378.163C366.856 378.163 367.935 377.788 375.12 383.67C382.305 389.552 382.325 392.493 387.618 394.684C392.91 396.875 401.642 395.414 406.181 394.684C410.252 394.033 480.639 389.493 497.961 388.604C500.22 379.367 497.961 364.937 495.07 354.555Z" fill="white"/>
<path d="M495.07 354.555C479.703 358.917 419.005 376.149 413.366 377.432C409.874 378.257 406.332 378.87 402.762 379.268C402.762 379.268 381.552 370.445 375.873 366.418C370.194 362.391 363.375 364.937 359.976 366.418C356.577 367.898 353.869 378.163 360.363 378.163C366.856 378.163 367.935 377.788 375.12 383.67C382.305 389.552 382.325 392.493 387.618 394.684C392.91 396.875 401.642 395.414 406.181 394.684C410.252 394.033 480.639 389.493 497.961 388.604C500.22 379.367 497.961 364.937 495.07 354.555Z" stroke="#263238" stroke-linecap="round" stroke-linejoin="round"/>
<path d="M343.305 378.538C343.305 378.538 335.347 382.939 333.128 388.072C330.909 393.204 335.387 391.743 336.914 390.657C338.441 389.572 344.873 384.4 344.873 384.4L343.305 378.538Z" fill="white" stroke="#263238" stroke-linecap="round" stroke-linejoin="round"/>
<path d="M345.585 374.847C344.095 375.774 342.916 377.102 342.193 378.67C341.47 380.237 341.234 381.975 341.514 383.67C342.267 389.908 349.086 399.086 349.86 395.415C350.633 391.743 345.585 374.847 345.585 374.847Z" fill="white" stroke="#263238" stroke-linecap="round" stroke-linejoin="round"/>
<path d="M355.05 369.339C355.05 369.339 347.845 371.175 345.585 374.847C343.326 378.518 347.091 394.329 349.758 395.415C350.324 395.661 350.94 395.779 351.56 395.759C352.18 395.74 352.787 395.583 353.334 395.301C353.882 395.019 354.356 394.62 354.721 394.133C355.085 393.647 355.33 393.086 355.437 392.493C356.19 389.907 355.05 369.339 355.05 369.339Z" fill="white" stroke="#263238" stroke-linecap="round" stroke-linejoin="round"/>
<path d="M364.149 365.668C364.149 365.668 354.663 365.668 353.544 370.089C352.424 374.511 350.511 393.579 352.404 396.52C354.297 399.461 357.33 398.356 358.836 394.684C360.342 391.013 364.149 365.668 364.149 365.668Z" fill="white" stroke="#263238" stroke-linecap="round" stroke-linejoin="round"/>
<path d="M372.759 331.46L357.208 400.132L359.651 408.896C359.687 409.03 359.76 409.153 359.861 409.251C359.962 409.35 360.088 409.421 360.226 409.457C360.365 409.493 360.51 409.493 360.649 409.457C360.787 409.421 360.913 409.35 361.014 409.251L367.813 402.698L379.171 333.296L372.759 331.46Z" fill="#263238"/>
<path d="M388.005 386.887C388.005 386.887 379.293 390.203 372.474 393.144C365.655 396.086 358.836 397.546 359.589 401.593C360.343 405.639 363.375 404.159 368.301 402.698C375.06 400.412 382.045 398.811 389.144 397.921C398.609 396.816 406.181 388.368 406.181 388.368" fill="white"/>
<path d="M388.005 386.887C388.005 386.887 379.293 390.203 372.474 393.144C365.655 396.086 358.836 397.546 359.589 401.593C360.343 405.639 363.375 404.159 368.301 402.698C375.06 400.412 382.045 398.811 389.144 397.921C398.609 396.816 406.181 388.368 406.181 388.368" stroke="#263238" stroke-linecap="round" stroke-linejoin="round"/>
<path d="M357.411 401.198L358.999 407.673C359.077 407.985 359.237 408.272 359.465 408.504C359.693 408.737 359.98 408.908 360.297 409C360.614 409.092 360.951 409.102 361.273 409.028C361.595 408.955 361.892 408.8 362.133 408.581L365.858 405.146" stroke="white" stroke-width="0.5" stroke-linecap="round" stroke-linejoin="round"/>
<path d="M357.229 400.132L365.269 365.352" stroke="white" stroke-width="0.5" stroke-linecap="round" stroke-linejoin="round"/>
<path d="M373.369 331.342C373.369 331.342 377.053 325.084 378.6 332.842L373.369 331.342Z" fill="#263238"/>
<mask id="mask2_786_2410" style="mask-type:luminance" maskUnits="userSpaceOnUse" x="356" y="354" width="143" height="42">
<path d="M495.07 354.555C479.703 358.917 419.005 376.149 413.366 377.432C409.874 378.257 406.332 378.87 402.762 379.268C402.762 379.268 381.552 370.445 375.873 366.418C370.194 362.391 363.375 364.937 359.976 366.418C356.577 367.898 353.869 378.163 360.363 378.163C366.856 378.163 367.935 377.788 375.12 383.67C382.305 389.552 382.325 392.493 387.618 394.684C392.91 396.875 401.642 395.414 406.181 394.684C410.252 394.033 480.639 389.493 497.961 388.604C500.22 379.367 497.961 364.937 495.07 354.555Z" fill="white"/>
</mask>
<g mask="url(#mask2_786_2410)">
<g style="mix-blend-mode:multiply" opacity="0.5">
<path d="M497.493 365.174L406.182 394.783C410.253 394.131 480.639 389.592 497.961 388.703C499.508 382.268 498.938 373.484 497.493 365.174Z" fill="#92CCE3"/>
</g>
</g>
<path d="M112.951 429.761L221.116 400.014C224.554 399.66 228.013 400.469 230.907 402.304L406.914 511.362C407.664 511.832 408.247 512.514 408.584 513.316C408.921 514.117 408.996 515 408.798 515.845C408.6 516.689 408.14 517.454 407.479 518.036C406.818 518.618 405.988 518.989 405.103 519.099L257.083 563.808L112.951 429.761Z" fill="#92CCE3" stroke="#263238" stroke-linecap="round" stroke-linejoin="round"/>
<path d="M176.193 436.038L191.52 446.282L209.229 441.426L193.922 431.202L176.193 436.038Z" fill="#263238"/>
<path d="M185.74 464.679L170.433 454.434L152.704 459.29L168.031 469.534L185.74 464.679Z" fill="#263238"/>
<path d="M214.704 442.314L230.011 452.539L247.72 447.683L232.413 437.458L214.704 442.314Z" fill="#263238"/>
<path d="M232.556 454.237L247.862 464.461L265.571 459.606L250.264 449.381L232.556 454.237Z" fill="#263238"/>
<path d="M194.045 447.96L209.352 458.205L227.06 453.349L211.754 443.124L194.045 447.96Z" fill="#263238"/>
<path d="M155.533 441.702L170.84 451.947L188.569 447.091L173.242 436.847L155.533 441.702Z" fill="#263238"/>
<path d="M277.763 506.703L262.436 496.458L244.748 501.314L260.055 511.559L277.763 506.703Z" fill="#263238"/>
<path d="M257.083 512.368L241.776 502.124L224.067 506.979L239.395 517.204L257.083 512.368Z" fill="#263238"/>
<path d="M203.57 476.601L188.263 466.356L170.555 471.212L185.861 481.437L203.57 476.601Z" fill="#263238"/>
<path d="M295.595 518.626L280.288 508.401L262.579 513.237L277.886 523.482L295.595 518.626Z" fill="#263238"/>
<path d="M221.422 488.523L206.094 478.279L188.386 483.135L203.713 493.359L221.422 488.523Z" fill="#263238"/>
<path d="M239.253 500.446L223.946 490.201L206.237 495.057L221.544 505.302L239.253 500.446Z" fill="#263238"/>
<path d="M250.386 466.159L265.692 476.384L283.401 471.528L268.094 461.303L250.386 466.159Z" fill="#263238"/>
<path d="M173.385 453.625L188.692 463.87L206.4 459.014L191.093 448.789L173.385 453.625Z" fill="#263238"/>
<path d="M316.255 512.961L300.948 502.736L283.239 507.592L298.546 517.816L316.255 512.961Z" fill="#263238"/>
<path d="M262.742 477.194L247.435 466.969L229.727 471.805L245.033 482.049L262.742 477.194Z" fill="#263238"/>
<path d="M224.23 470.936L208.923 460.691L191.215 465.547L206.522 475.792L224.23 470.936Z" fill="#263238"/>
<path d="M150.057 440.834L141.101 434.833L128.99 438.13L136.074 444.663L150.057 440.834Z" fill="#263238"/>
<path d="M167.888 452.756L152.581 442.512L138.068 446.499L150.057 457.513L150.179 457.592L167.888 452.756Z" fill="#263238"/>
<path d="M211.875 459.902L227.202 470.127L244.911 465.271L229.584 455.046L211.875 459.902Z" fill="#263238"/>
<path d="M242.082 482.859L226.775 472.634L209.066 477.47L224.373 487.714L242.082 482.859Z" fill="#263238"/>
<path d="M319.084 495.373L303.777 485.148L286.068 490.004L301.375 500.229L319.084 495.373Z" fill="#263238"/>
<path d="M268.217 478.081L283.544 488.306L301.253 483.45L285.946 473.226L268.217 478.081Z" fill="#263238"/>
<path d="M298.424 501.038L283.117 490.813L265.408 495.669L280.715 505.894L298.424 501.038Z" fill="#263238"/>
<path d="M280.572 489.116L265.265 478.891L247.557 483.727L262.884 493.972L280.572 489.116Z" fill="#263238"/>
<path d="M259.913 494.781L244.606 484.556L226.897 489.392L242.204 499.637L259.913 494.781Z" fill="#263238"/>
<path d="M182.911 482.247L167.604 472.022L166.24 472.397L178.311 483.51L182.911 482.247Z" fill="#263238"/>
<path d="M318.799 514.658L301.09 519.514L319.45 531.772L336.711 526.62L318.799 514.658Z" fill="#263238"/>
<path d="M298.118 520.323L280.409 525.159L299.319 537.792L316.559 532.64L298.118 520.323Z" fill="#263238"/>
<path d="M218.592 506.091L203.286 495.866L194.391 498.294L206.481 509.427L218.592 506.091Z" fill="#263238"/>
<path d="M336.935 507.295L321.608 497.07L303.899 501.926L319.227 512.151L336.935 507.295Z" fill="#263238"/>
<path d="M236.423 518.034L221.116 507.789L208.476 511.263L220.546 522.376L236.423 518.034Z" fill="#263238"/>
<path d="M254.274 529.956L238.967 519.711L222.541 524.211L234.632 535.325L254.274 529.956Z" fill="#263238"/>
<path d="M274.934 524.29L259.628 514.046L241.919 518.902L257.226 529.146L274.934 524.29Z" fill="#263238"/>
<path d="M374.957 508.223L364.78 502.045L342.39 508.184L359.691 519.751L373.166 515.803C374.054 515.728 374.894 515.382 375.566 514.814C376.238 514.247 376.707 513.487 376.906 512.645C377.105 511.803 377.024 510.921 376.674 510.127C376.323 509.332 375.722 508.666 374.957 508.223Z" fill="#263238"/>
<path d="M256.799 531.633L236.627 537.16L252.504 551.767L276.298 544.661L256.799 531.633Z" fill="#263238"/>
<path d="M345.891 490.418L324.579 496.261L339.886 506.486L362.174 500.387L345.891 490.418Z" fill="#263238"/>
<path d="M339.459 508.993L321.75 513.849L339.581 525.771L356.842 520.619L339.459 508.993Z" fill="#263238"/>
<path d="M215.01 423.029L229.482 419.062L220.139 413.337L206.176 417.127L215.01 423.029Z" fill="#263238"/>
<path d="M296.429 538.661L277.459 525.968L259.75 530.824L279.168 543.812L296.429 538.661Z" fill="#263238"/>
<path d="M217.534 424.727L232.841 434.952L248.453 430.688L232.169 420.72L217.534 424.727Z" fill="#263238"/>
<path d="M253.216 448.572L268.523 458.796L286.353 453.921L270.09 443.953L253.216 448.572Z" fill="#263238"/>
<path d="M235.364 436.65L250.691 446.874L267.403 442.295L251.119 432.327L235.364 436.65Z" fill="#263238"/>
<path d="M271.047 460.494L286.354 470.719L305.304 465.548L289.04 455.56L271.047 460.494Z" fill="#263238"/>
<path d="M288.897 472.416L304.204 482.641L324.254 477.154L307.99 467.186L288.897 472.416Z" fill="#263238"/>
<path d="M326.941 478.792L306.729 484.339L322.035 494.563L343.204 488.78L326.941 478.792Z" fill="#263238"/>
<path d="M196.874 430.392L212.181 440.617L229.889 435.761L214.583 425.536L196.874 430.392Z" fill="#263238"/>
<path d="M161.11 467.699L164.245 470.561L165.059 470.324L161.11 467.699Z" fill="#263238"/>
<path d="M153.009 440.025L170.717 435.169L161.802 429.208L144.053 434.024L153.009 440.025Z" fill="#263238"/>
<path d="M173.669 434.36L191.378 429.504L182.503 423.562L164.754 428.399L173.669 434.36Z" fill="#263238"/>
<path d="M185.475 422.773L194.349 428.695L212.058 423.839L203.204 417.937L185.475 422.773Z" fill="#263238"/>
<path d="M200.741 494.189L185.434 483.944L180.305 485.346L192.395 496.459L200.741 494.189Z" fill="#263238"/>
<path d="M256.981 563.809L210.165 380.019C209.099 375.84 206.8 372.054 203.55 369.123L77.3503 255.011C76.814 254.528 76.132 254.225 75.4046 254.146C74.6772 254.067 73.9428 254.216 73.3093 254.572C72.6759 254.927 72.1769 255.471 71.8857 256.122C71.5946 256.773 71.5265 257.498 71.6917 258.189L112.951 429.761L256.981 563.809Z" fill="#92CCE3" stroke="#263238" stroke-linecap="round" stroke-linejoin="round"/>
<path d="M186.229 361.602L200.66 373.84C200.66 373.84 205.158 374.708 209.657 396.559" stroke="#263238" stroke-width="0.5" stroke-linecap="round" stroke-linejoin="round"/>
<path d="M212.363 407.909L238.967 519.711" stroke="#263238" stroke-width="0.5" stroke-linecap="round" stroke-linejoin="round"/>
<path d="M134.466 356.608C140.715 371.333 140.145 385.525 133.183 388.308C126.222 391.092 115.495 381.4 109.246 366.595C102.997 351.791 103.567 337.678 110.529 334.914C117.49 332.151 128.217 341.882 134.466 356.608Z" fill="#92CCE3"/>
<path opacity="0.6" d="M134.466 356.608C140.715 371.333 140.145 385.525 133.183 388.308C126.222 391.092 115.495 381.4 109.246 366.595C102.997 351.791 103.567 337.678 110.529 334.914C117.49 332.151 128.217 341.882 134.466 356.608Z" fill="white"/>
<path d="M129.906 380.604C134.854 378.628 135.26 368.536 130.813 358.062C126.366 347.589 118.75 340.7 113.802 342.676C108.854 344.651 108.448 354.743 112.895 365.217C117.342 375.691 124.958 382.579 129.906 380.604Z" stroke="#263238" stroke-miterlimit="10"/>
<path d="M144.114 416.989C147.371 424.628 146.028 432.405 141.143 434.359C136.258 436.314 129.663 431.695 126.406 424.075C123.149 416.456 124.513 408.659 129.398 406.705C134.283 404.751 140.878 409.37 144.114 416.989Z" fill="#263238"/>
<path d="M137.376 429.919C134.303 429.919 130.965 427.214 129.235 422.99C128.26 420.818 127.922 418.428 128.258 416.082C128.347 415.103 128.698 414.164 129.277 413.357C129.855 412.551 130.64 411.905 131.555 411.482C134.995 410.101 139.392 413.002 141.549 418.075C143.686 423.148 142.669 428.201 139.229 429.583C138.639 429.809 138.01 429.923 137.376 429.919ZM133.305 413.121C132.956 413.117 132.609 413.185 132.288 413.318C131.703 413.622 131.208 414.067 130.852 414.609C130.495 415.152 130.289 415.775 130.252 416.417C129.961 418.43 130.257 420.481 131.107 422.339C132.756 426.287 136.114 428.774 138.435 427.846C140.755 426.918 141.305 422.832 139.636 418.924C138.109 415.47 135.341 413.121 133.305 413.121Z" fill="#92CCE3"/>
<g opacity="0.5">
<path d="M137.376 429.919C134.303 429.919 130.965 427.214 129.235 422.99C128.26 420.818 127.922 418.428 128.258 416.082C128.347 415.103 128.698 414.164 129.277 413.357C129.855 412.551 130.64 411.905 131.555 411.482C134.995 410.101 139.392 413.002 141.549 418.075C143.686 423.148 142.669 428.201 139.229 429.583C138.639 429.809 138.01 429.923 137.376 429.919ZM133.305 413.121C132.956 413.117 132.609 413.185 132.288 413.318C131.703 413.622 131.208 414.067 130.852 414.609C130.495 415.152 130.289 415.775 130.252 416.417C129.961 418.43 130.257 420.481 131.107 422.339C132.756 426.287 136.114 428.774 138.435 427.846C140.755 426.918 141.305 422.832 139.636 418.924C138.109 415.47 135.341 413.121 133.305 413.121Z" fill="white"/>
</g>
<path d="M180.407 419.437L168.825 437.202C168.526 437.634 168.367 438.143 168.367 438.663C168.367 439.183 168.526 439.691 168.825 440.123L193.617 475.18C193.834 475.491 194.116 475.755 194.445 475.953C194.774 476.152 195.142 476.282 195.526 476.334C195.909 476.386 196.3 476.359 196.673 476.256C197.045 476.152 197.391 475.974 197.688 475.733L210.532 465.567C211.044 465.167 211.389 464.601 211.505 463.974C211.621 463.347 211.5 462.7 211.163 462.152L185.088 419.536C184.855 419.138 184.52 418.806 184.114 418.571C183.709 418.337 183.248 418.208 182.776 418.198C182.305 418.188 181.838 418.297 181.423 418.514C181.008 418.732 180.658 419.049 180.407 419.437Z" fill="#263238"/>
<path d="M160.255 442.985C160.255 442.985 192.335 437.814 214.379 481.634L219.854 475.101C219.854 475.101 198.624 440.814 181.323 437.755C164.021 434.695 157.731 434.675 157.731 434.675L160.255 442.985Z" fill="#92CCE3"/>
<path opacity="0.5" d="M160.255 442.985C160.255 442.985 192.335 437.814 214.379 481.634L219.854 475.101C219.854 475.101 198.624 440.814 181.323 437.755C164.021 434.695 157.731 434.675 157.731 434.675L160.255 442.985Z" fill="white"/>
<path d="M21.9043 348.416L74.2567 336.947" stroke="#263238" stroke-linecap="round" stroke-linejoin="round"/>
<path d="M1 352.996L14.4138 350.055" stroke="#263238" stroke-linecap="round" stroke-linejoin="round"/>
<path d="M354.298 458.955C348.022 459.915 341.695 460.528 335.347 460.79C325.516 461.165 321.343 461.165 322.849 463.376C324.356 465.587 336.121 467.778 340.273 468.508C344.426 469.239 354.298 458.955 354.298 458.955Z" fill="white" stroke="#263238" stroke-miterlimit="10"/>
<path d="M723.451 538.799L705.926 529.916" stroke="#263238" stroke-linecap="round" stroke-linejoin="round"/>
<path d="M648.973 127.438C648.973 127.438 700.389 135.333 716.937 162.06C733.485 188.786 721.659 230.791 716.143 245.299C711.156 258.465 725.893 269.46 734.951 276.605C755.306 292.633 765.788 315.254 755.204 339.869C748.609 355.186 719.278 362.055 723.247 380.492C727.216 398.928 744.497 424.786 722.453 443.893C699.188 464.027 664.279 453.645 643.884 434.833C620.944 413.673 613.046 376.86 624.791 348.416C639.039 314.05 646.835 291.903 633.442 277.355C620.048 262.808 602.727 253.669 602.727 233.061C602.727 212.453 621.636 206.334 629.513 185.687C637.391 165.04 626.358 143.683 626.358 143.683L648.973 127.438Z" fill="#263238" stroke="#263238" stroke-linecap="round" stroke-linejoin="round"/>
<path d="M697.132 163.086C707.066 170.37 716.103 182.628 712.968 202.564C706.618 243.029 675.78 245.674 695.728 271.177C715.676 296.68 733.832 285.231 730.189 316.892C726.545 348.554 714.78 359.983 714.78 359.983" stroke="white" stroke-miterlimit="10"/>
<path d="M675.861 153.355C679.838 154.262 683.701 155.586 687.382 157.303" stroke="white" stroke-miterlimit="10"/>
<path d="M665.888 164.804C665.888 164.804 692.186 171.831 700.348 192.932C708.511 214.033 675.923 231.64 674.05 244.826" stroke="white" stroke-miterlimit="10"/>
<path d="M664.727 509.032C664.361 496.932 664.198 480.786 664.951 463.751C666.539 428.615 709.854 382.012 711.421 373.622C712.988 365.233 709.06 363.753 709.06 363.753L623.204 327.848C583.288 353.272 573.579 427.214 571.197 461.718L664.727 509.032Z" fill="#92CCE3" stroke="#263238" stroke-linecap="round" stroke-linejoin="round"/>
<path d="M699.737 365.984C699.737 365.984 706.943 370.346 699.737 377.334C692.532 384.321 672.706 414.029 664.564 431.498" stroke="#263238" stroke-width="0.5" stroke-linecap="round" stroke-linejoin="round"/>
<path d="M661.002 440.183C661.002 440.183 654.692 454.158 655.608 468.133C656.524 482.108 656.504 495.215 656.504 495.215" stroke="#263238" stroke-width="0.5" stroke-linecap="round" stroke-linejoin="round"/>
<path d="M492.587 347.015C496.373 356.568 500.933 377.117 497.9 388.861C496.333 394.961 491.081 407.771 486.42 418.687L602.177 477.351C602.055 453.98 602.361 417.088 605.434 410.239C609.973 399.955 646.327 303.036 644.108 281.007C641.89 258.979 597.923 227.396 597.923 227.396L604.661 173.706L564.541 197.215C564.541 197.215 559.982 218.494 555.443 223.646C550.904 228.798 513.797 236.121 503.192 249.306C492.587 262.492 496.373 302.918 496.373 305.109C496.373 307.3 488.801 337.54 492.587 347.015Z" fill="white"/>
<mask id="mask3_786_2410" style="mask-type:luminance" maskUnits="userSpaceOnUse" x="486" y="173" width="159" height="305">
<path d="M492.587 347.015C496.373 356.568 500.933 377.117 497.9 388.861C496.333 394.961 491.081 407.771 486.42 418.687L602.177 477.351C602.055 453.98 602.361 417.088 605.434 410.239C609.973 399.955 646.327 303.036 644.108 281.007C641.89 258.979 597.923 227.396 597.923 227.396L604.661 173.706L564.541 197.215C564.541 197.215 559.982 218.494 555.443 223.646C550.904 228.798 513.797 236.121 503.192 249.306C492.587 262.492 496.373 302.918 496.373 305.109C496.373 307.3 488.801 337.54 492.587 347.015Z" fill="white"/>
</mask>
<g mask="url(#mask3_786_2410)">
<g style="mix-blend-mode:multiply" opacity="0.5">
<path d="M644.047 280.928C641.767 258.9 597.862 227.317 597.862 227.317L604.66 173.706L564.541 197.215C564.541 197.215 563.218 203.354 561.305 209.848C563.89 209.631 566.78 209.276 570.017 208.723C585.323 206.098 593.445 200.827 593.445 200.827L585.303 234.028C585.303 234.028 626.745 257.715 637.554 286.455C639.019 290.403 640.586 294.094 642.194 297.766C643.565 292.255 644.187 286.595 644.047 280.928Z" fill="#92CCE3"/>
</g>
</g>
<path d="M492.587 347.015C496.373 356.568 500.933 377.117 497.9 388.861C496.333 394.961 491.081 407.771 486.42 418.687L602.177 477.351C602.055 453.98 602.361 417.088 605.434 410.239C609.973 399.955 646.327 303.036 644.108 281.007C641.89 258.979 597.923 227.396 597.923 227.396L604.661 173.706L564.541 197.215C564.541 197.215 559.982 218.494 555.443 223.646C550.904 228.798 513.797 236.121 503.192 249.306C492.587 262.492 496.373 302.918 496.373 305.109C496.373 307.3 488.801 337.54 492.587 347.015Z" stroke="#263238" stroke-linecap="round" stroke-linejoin="round"/>
<path d="M492.587 347.015C496.373 356.568 500.933 377.117 497.9 388.861C496.333 394.961 491.081 407.771 486.42 418.687L602.177 477.351C602.055 453.98 602.361 417.088 605.434 410.239C609.973 399.955 646.327 303.036 644.108 281.007C642.704 267.289 625.158 249.899 612.111 238.707C599.267 251.912 571.401 276.546 551.046 265.572C532.727 255.702 533.887 240.7 536.594 231.778C524.219 236.2 509.421 241.845 503.335 249.425C492.73 262.65 496.516 303.036 496.516 305.227C496.516 307.418 488.801 337.54 492.587 347.015Z" fill="#263238" stroke="#263238" stroke-linecap="round" stroke-linejoin="round"/>
<path d="M560.206 320.92L535.007 309.452C535.007 309.452 527.903 298.003 523.974 298.003C520.046 298.003 517.664 314.051 517.664 314.051C517.664 314.051 504.291 326.269 509.014 338.488C513.736 350.706 531.058 369.044 552.329 362.174C573.599 355.305 567.289 333.928 567.289 333.928C567.289 333.928 575.961 319.42 575.961 316.36C575.961 313.301 560.206 320.92 560.206 320.92Z" fill="white" stroke="#263238" stroke-linecap="round" stroke-linejoin="round"/>
<path d="M506.226 84.1109C506.226 84.1109 511.538 110.561 510.765 128.918C509.991 147.276 502.44 154.579 504.658 162.692C506.877 170.805 534.193 200.887 550.843 203.808C567.494 206.73 606.88 181.78 618.238 170.765C629.596 159.751 631.102 143.604 629.596 136.992C628.09 130.379 622.024 77.5181 599.308 56.2197C576.592 34.9213 516.831 37.1321 506.226 84.1109Z" fill="white"/>
<mask id="mask4_786_2410" style="mask-type:luminance" maskUnits="userSpaceOnUse" x="504" y="43" width="127" height="162">
<path d="M506.226 84.1109C506.226 84.1109 511.538 110.561 510.765 128.918C509.991 147.276 502.44 154.579 504.658 162.692C506.877 170.805 534.193 200.887 550.843 203.808C567.494 206.73 606.88 181.78 618.238 170.765C629.596 159.751 631.102 143.604 629.596 136.992C628.09 130.379 622.024 77.5181 599.308 56.2197C576.592 34.9213 516.831 37.1321 506.226 84.1109Z" fill="white"/>
</mask>
<g mask="url(#mask4_786_2410)">
<g style="mix-blend-mode:multiply" opacity="0.5">
<path d="M599.43 56.2201C590.942 48.3245 577.263 43.5871 562.913 43.291L561.977 70.6888C561.977 70.6888 557.458 97.7707 573.681 119.602C589.904 141.433 604.315 147.572 606.106 156.297C607.897 165.022 599.755 173.707 579.075 188.629C570.988 194.565 562.323 199.721 553.204 204.026C570.933 204.638 607.47 181.326 618.339 170.766C629.697 159.751 631.203 143.605 629.697 136.992C628.191 130.38 622.085 77.5185 599.43 56.2201Z" fill="#92CCE3"/>
</g>
</g>
<path d="M506.226 84.1109C506.226 84.1109 511.538 110.561 510.765 128.918C509.991 147.276 502.44 154.579 504.658 162.692C506.877 170.805 534.193 200.887 550.843 203.808C567.494 206.73 606.88 181.78 618.238 170.765C629.596 159.751 631.102 143.604 629.596 136.992C628.09 130.379 622.024 77.5181 599.308 56.2197C576.592 34.9213 516.831 37.1321 506.226 84.1109Z" stroke="#263238" stroke-linecap="round" stroke-linejoin="round"/>
<path d="M535.007 138.452C535.007 138.452 532.727 152.408 528.9 156.809C531.871 159.323 535.58 160.869 539.505 161.231" stroke="#263238" stroke-linecap="round" stroke-linejoin="round"/>
<path d="M536.513 173.706C541.446 175.826 546.822 176.799 552.212 176.545C557.602 176.291 562.855 174.819 567.554 172.245" stroke="#263238" stroke-linecap="round" stroke-linejoin="round"/>
<path d="M563.768 131.109C563.768 133.556 562.587 135.53 561.122 135.53C559.656 135.53 558.476 133.556 558.476 131.109C558.476 128.661 559.656 126.707 561.122 126.707C562.587 126.707 563.768 128.681 563.768 131.109Z" fill="#263238"/>
<path d="M526.295 125.247C526.295 127.674 525.115 129.648 523.649 129.648C522.183 129.648 521.003 127.674 521.003 125.247C521.003 122.819 522.183 120.845 523.649 120.845C525.115 120.845 526.295 122.819 526.295 125.247Z" fill="#263238"/>
<path d="M516.077 106.159C518.2 104.874 520.569 104.016 523.041 103.636C525.513 103.256 528.039 103.363 530.468 103.949" stroke="#263238" stroke-linecap="round" stroke-linejoin="round"/>
<path d="M551.657 106.89C551.657 106.89 556.196 104.679 566.048 110.561" stroke="#263238" stroke-linecap="round" stroke-linejoin="round"/>
<path d="M556.196 64.2923C556.196 64.2923 535.007 81.1889 524.402 91.4532C513.797 101.717 509.258 109.08 493.361 102.487C477.464 95.8944 466.086 73.0959 487.255 45.935C508.424 18.7741 549.357 10.6811 589.476 21.6955C629.596 32.7098 646.286 57.6797 649.299 84.8603C652.311 112.041 646.246 142.123 631.997 150.216C617.749 158.309 585.792 125.246 574.434 104.678C567.317 91.6799 561.22 78.1796 556.196 64.2923Z" fill="#263238" stroke="#263238" stroke-linecap="round" stroke-linejoin="round"/>
<path d="M556.196 64.293C556.196 64.293 499.019 72.4649 496.312 84.7623C493.605 97.0597 510.825 93.5659 510.825 93.5659" stroke="white" stroke-miterlimit="10"/>
<path d="M488.944 72.4053C485.077 80.4193 488.15 85.6502 488.15 85.6502" stroke="white" stroke-miterlimit="10"/>
<path d="M613.291 38.1582C613.291 38.1582 557.967 29.3743 557.967 53.1006C557.967 53.1006 524.422 41.6717 502.663 57.5024C499.397 59.8112 496.401 62.4587 493.728 65.398" stroke="white" stroke-miterlimit="10"/>
<path d="M560.756 58.3906C560.756 58.3906 574.862 102.527 604.295 113.798" stroke="white" stroke-miterlimit="10"/>
<path d="M590.107 70.2539C601.445 79.3339 617.668 88.2954 636.923 87.4071" stroke="white" stroke-miterlimit="10"/>
<path d="M572.479 52.2324C575.13 55.7681 578.042 59.1127 581.191 62.2401" stroke="white" stroke-miterlimit="10"/>
<path d="M589.517 124.516L628.903 117.903V123.035L589.517 132.589V124.516Z" fill="#92CCE3" stroke="#263238" stroke-linecap="round" stroke-linejoin="round"/>
<path d="M657.971 129.087C661.048 110.52 653.834 93.9554 641.858 92.089C629.882 90.2225 617.679 103.761 614.602 122.328C611.525 140.895 618.739 157.459 630.715 159.326C642.691 161.192 654.894 147.654 657.971 129.087Z" fill="#92CCE3" stroke="#263238" stroke-linecap="round" stroke-linejoin="round"/>
<path d="M664.3 129.826C661.715 145.459 652.739 157.046 644.292 155.724C635.844 154.401 631.061 140.683 633.646 125.049C636.231 109.416 645.187 97.8488 653.655 99.1714C662.122 100.494 666.885 114.212 664.3 129.826Z" fill="#92CCE3" stroke="#263238" stroke-linecap="round" stroke-linejoin="round"/>
<path d="M652.352 64.2928C653.815 84.842 651.506 105.48 645.533 125.247C645.533 125.247 644.78 137.09 656.138 131.859C667.496 126.629 665.989 81.9197 664.463 63.5624C662.936 45.2051 648.586 50.3373 652.352 64.2928Z" fill="white" stroke="#263238" stroke-linecap="round" stroke-linejoin="round"/>
<path d="M609.973 29.769C609.973 29.769 627.377 25.3672 636.435 40.8031C645.492 56.239 644.007 70.1747 656.789 71.6354C669.572 73.0961 670.427 59.1604 663.608 41.5334C656.789 23.9065 642.419 10.6813 622.716 9.22066C603.012 7.75997 593.323 23.1761 593.323 23.1761C593.323 23.1761 603.908 24.6368 609.973 29.769Z" fill="#92CCE3" stroke="#263238" stroke-linecap="round" stroke-linejoin="round"/>
<path d="M608.446 304.418L556.196 419.714C556.196 419.714 413.835 445.374 400.97 445.374C388.106 445.374 362.296 454.178 357.045 457.218C351.793 460.257 300.316 483.174 310.229 484.596C316.335 485.484 332.131 477.055 332.131 477.055C332.131 477.055 307.135 488.899 309.394 492.472C311.654 496.044 341.962 481.457 341.962 481.457C341.962 481.457 314.259 497.248 319.938 498.137C325.108 499.025 331.357 496.163 336.67 492.472C341.303 489.714 346.293 487.563 351.508 486.076C351.508 486.076 339.296 493.972 337.85 497.564C336.405 501.157 340.883 499.025 345.422 497.564C353.917 494.012 362.128 489.855 369.991 485.129C373.003 482.918 382.102 478.516 388.167 473.384L400.278 463.1C400.278 463.1 481.29 465.291 518.336 463.83C555.382 462.37 573.619 458.698 587.257 445.473C600.895 432.248 639.508 348.535 648.586 325.776C657.664 303.016 651.619 289.791 642.48 274.454" fill="white"/>
<mask id="mask5_786_2410" style="mask-type:luminance" maskUnits="userSpaceOnUse" x="308" y="274" width="346" height="226">
<path d="M608.446 304.418L556.196 419.714C556.196 419.714 413.835 445.374 400.97 445.374C388.106 445.374 362.296 454.178 357.045 457.218C351.793 460.257 300.316 483.174 310.229 484.596C316.335 485.484 332.131 477.055 332.131 477.055C332.131 477.055 307.135 488.899 309.394 492.472C311.654 496.044 341.962 481.457 341.962 481.457C341.962 481.457 314.259 497.248 319.938 498.137C325.108 499.025 331.357 496.163 336.67 492.472C341.303 489.714 346.293 487.563 351.508 486.076C351.508 486.076 339.296 493.972 337.85 497.564C336.405 501.157 340.883 499.025 345.422 497.564C353.917 494.012 362.128 489.855 369.991 485.129C373.003 482.918 382.102 478.516 388.167 473.384L400.278 463.1C400.278 463.1 481.29 465.291 518.336 463.83C555.382 462.37 573.619 458.698 587.257 445.473C600.895 432.248 639.508 348.535 648.586 325.776C657.664 303.016 651.619 289.791 642.48 274.454" fill="white"/>
</mask>
<g mask="url(#mask5_786_2410)">
<g style="mix-blend-mode:multiply" opacity="0.5">
<path d="M610.564 379.959C586.138 424.51 565.519 438.485 543.902 449.046C522.285 459.606 403.353 462.152 403.353 462.152L408.36 463.317C429.834 463.83 488.395 465.034 518.275 463.85C555.382 462.389 573.559 458.718 587.197 445.493C600.834 432.267 639.447 348.554 648.525 325.795C652.739 315.254 653.675 306.767 652.596 299.147L647.447 302.286C636.777 328.874 624.461 354.812 610.564 379.959Z" fill="#92CCE3"/>
</g>
</g>
<path d="M608.446 304.418L556.196 419.714C556.196 419.714 413.835 445.374 400.97 445.374C388.106 445.374 362.296 454.178 357.045 457.218C351.793 460.257 300.316 483.174 310.229 484.596C316.335 485.484 332.131 477.055 332.131 477.055C332.131 477.055 307.135 488.899 309.394 492.472C311.654 496.044 341.962 481.457 341.962 481.457C341.962 481.457 314.259 497.248 319.938 498.137C325.108 499.025 331.357 496.163 336.67 492.472C341.303 489.714 346.293 487.563 351.508 486.076C351.508 486.076 339.296 493.972 337.85 497.564C336.405 501.157 340.883 499.025 345.422 497.564C353.917 494.012 362.128 489.855 369.991 485.129C373.003 482.918 382.102 478.516 388.167 473.384L400.278 463.1C400.278 463.1 481.29 465.291 518.336 463.83C555.382 462.37 573.619 458.698 587.257 445.473C600.895 432.248 639.508 348.535 648.586 325.776C657.664 303.016 651.619 289.791 642.48 274.454" stroke="#263238" stroke-miterlimit="10"/>
<path d="M607.571 301.516L591.674 341.488C603.357 335.447 625.28 327.335 642.764 339.514C645.227 333.908 647.242 329.17 648.586 325.795C657.684 303.036 651.619 289.811 642.479 274.474" fill="#263238"/>
<path d="M607.571 301.516L591.674 341.488C603.357 335.447 625.28 327.335 642.764 339.514C645.227 333.908 647.242 329.17 648.586 325.795C657.684 303.036 651.619 289.811 642.479 274.474" stroke="#263238" stroke-linecap="round" stroke-linejoin="round"/>
<path d="M79.04 263.755L181.73 356.37" stroke="#263238" stroke-width="0.5" stroke-linecap="round" stroke-linejoin="round"/>
</svg>
