<svg width="754" height="665" viewBox="0 0 754 665" fill="none" xmlns="http://www.w3.org/2000/svg">
<path d="M598.556 129.467C570.929 88.7152 548.008 37.7491 503.334 12.5624C439.801 -23.2568 378.725 25.4434 327.289 59.8159C300.272 77.8562 271.512 96.646 238.778 101.875C191.96 109.37 144.41 88.6455 97.9932 101.335C19.5569 122.774 -1.89973 218.118 24.4723 285.869C61.0759 379.993 142.998 481.088 158.685 557.781C174.373 634.475 247.58 688.509 373.078 653.648C498.576 618.787 491.604 538.608 603.158 521.178C714.711 503.748 768.745 423.568 749.572 322.473C740.142 272.709 709.569 236.193 669.811 206.875C641.365 185.959 618.322 158.611 598.556 129.467Z" fill="#92CCE3"/>
<g opacity="0.7">
<path d="M598.556 129.467C570.929 88.7152 548.008 37.7491 503.334 12.5624C439.801 -23.2568 378.725 25.4434 327.289 59.8159C300.272 77.8562 271.512 96.646 238.778 101.875C191.96 109.37 144.41 88.6455 97.9932 101.335C19.5569 122.774 -1.89973 218.118 24.4723 285.869C61.0759 379.993 142.998 481.088 158.685 557.781C174.373 634.475 247.58 688.509 373.078 653.648C498.576 618.787 491.604 538.608 603.158 521.178C714.711 503.748 768.745 423.568 749.572 322.473C740.142 272.709 709.569 236.193 669.811 206.875C641.365 185.959 618.322 158.611 598.556 129.467Z" fill="white"/>
</g>
<path d="M351.028 618.055L143.434 239.069L0 287.612L46.5214 378.075L43.5757 373.021L34.8606 375.914C33.9929 376.204 33.1982 376.679 32.5312 377.305C31.8642 377.932 31.3405 378.695 30.9961 379.543C30.6517 380.39 30.4948 381.303 30.536 382.217C30.5773 383.131 30.8157 384.025 31.2351 384.838L54.1733 429.442C55.6354 432.295 57.9675 434.607 60.8317 436.046C63.6959 437.484 66.9437 437.973 70.1046 437.443L76.4666 436.38L188.195 653.648L351.028 618.055Z" fill="#2E353A"/>
<path d="M485.137 75.4333C482.906 76.6524 480.282 76.937 477.841 76.2247C475.4 75.5124 473.342 73.8613 472.116 71.6335L466.8 61.9248L143.434 239.069L351.028 618.055L674.412 440.929L561.394 234.607C560.176 232.378 559.892 229.757 560.604 227.319C561.317 224.881 562.967 222.825 565.194 221.604C566.299 220.999 567.274 220.182 568.063 219.2C568.852 218.218 569.439 217.09 569.792 215.881C570.145 214.672 570.256 213.405 570.119 212.153C569.982 210.9 569.6 209.687 568.994 208.583L498.14 79.2331C496.918 77.0064 494.862 75.3556 492.424 74.6432C489.986 73.9308 487.365 74.2149 485.137 75.4333Z" fill="#92CCE3" stroke="#2E353A" stroke-linecap="round" stroke-linejoin="round"/>
<path d="M501.224 89.4166L238.597 183.037L363.992 534.799L626.619 441.178L501.224 89.4166Z" fill="white" stroke="#2E353A" stroke-linecap="round" stroke-linejoin="round"/>
<path d="M501.237 89.4293L238.61 183.05L284.806 312.639L547.433 219.019L501.237 89.4293Z" fill="white" stroke="#2E353A" stroke-linecap="round" stroke-linejoin="round"/>
<path d="M480.91 222.565C500.52 210.115 506.325 184.125 493.875 164.514C481.425 144.904 455.435 139.099 435.824 151.549C416.214 163.999 410.409 189.989 422.859 209.6C435.309 229.21 461.299 235.015 480.91 222.565Z" fill="#2E353A" stroke="#2E353A" stroke-linecap="round" stroke-linejoin="round"/>
<path d="M472.482 226.728C478.312 224.656 483.613 221.32 488.003 216.96C492.394 212.6 495.766 207.323 497.878 201.507C490.575 185.157 472.726 176.634 456.655 182.333C440.585 188.033 432.166 205.969 436.854 223.242C442.169 226.413 448.119 228.369 454.278 228.972C460.437 229.575 466.653 228.809 472.482 226.728Z" fill="white" stroke="#2E353A" stroke-linecap="round" stroke-linejoin="round"/>
<path d="M469.666 195.221C478.489 187.426 479.322 173.955 471.527 165.132C463.732 156.309 450.26 155.475 441.437 163.27C432.614 171.065 431.781 184.537 439.576 193.36C447.371 202.183 460.843 203.016 469.666 195.221Z" fill="white" stroke="#2E353A" stroke-linecap="round" stroke-linejoin="round"/>
<path d="M370.056 188.178L278.146 220.942L281.91 231.499L373.819 198.735L370.056 188.178Z" fill="white" stroke="#2E353A" stroke-linecap="round" stroke-linejoin="round"/>
<path d="M379.11 213.543L287.2 246.307L290.964 256.864L382.873 224.1L379.11 213.543Z" fill="white" stroke="#2E353A" stroke-linecap="round" stroke-linejoin="round"/>
<path d="M386.623 234.655L294.714 267.418L296.598 272.705L388.508 239.941L386.623 234.655Z" fill="#2E353A"/>
<path d="M391.144 247.34L299.234 280.104L301.119 285.39L393.029 252.627L391.144 247.34Z" fill="#2E353A"/>
<path d="M414.116 311.782L322.206 344.546L324.091 349.833L416 317.069L414.116 311.782Z" fill="#2E353A"/>
<path d="M418.249 323.414L326.34 356.178L328.224 361.464L420.134 328.701L418.249 323.414Z" fill="#2E353A"/>
<path d="M422.4 335.029L330.49 367.793L332.375 373.08L424.284 340.316L422.4 335.029Z" fill="#2E353A"/>
<path d="M538.774 267.337L446.864 300.101L448.749 305.388L540.658 272.624L538.774 267.337Z" fill="#2E353A"/>
<path d="M542.925 278.97L451.016 311.733L452.9 317.02L544.81 284.256L542.925 278.97Z" fill="#2E353A"/>
<path d="M547.059 290.591L455.149 323.354L457.034 328.641L548.944 295.877L547.059 290.591Z" fill="#2E353A"/>
<path d="M316.307 334.779L538.177 255.715" stroke="#2E353A" stroke-linecap="round" stroke-linejoin="round"/>
<path d="M435.583 371.999L343.674 404.763L345.558 410.049L437.468 377.286L435.583 371.999Z" fill="#2E353A"/>
<path d="M439.717 383.637L347.808 416.4L349.692 421.687L441.602 388.923L439.717 383.637Z" fill="#2E353A"/>
<path d="M443.869 395.252L351.959 428.016L353.844 433.302L445.753 400.539L443.869 395.252Z" fill="#2E353A"/>
<path d="M560.242 327.56L468.332 360.324L470.217 365.61L562.126 332.847L560.242 327.56Z" fill="#2E353A"/>
<path d="M564.393 339.192L472.483 371.956L474.368 377.243L566.277 344.479L564.393 339.192Z" fill="#2E353A"/>
<path d="M568.528 350.813L476.618 383.577L478.503 388.863L570.412 356.1L568.528 350.813Z" fill="#2E353A"/>
<path d="M337.764 395L559.634 315.937" stroke="#2E353A" stroke-linecap="round" stroke-linejoin="round"/>
<path d="M576.809 374.036L359.168 451.62L377.996 504.437L595.637 426.853L576.809 374.036Z" fill="#2E353A" stroke="#2E353A" stroke-linecap="round" stroke-linejoin="round"/>
<path d="M466.847 111.188L210.598 221.07L357.773 564.289L614.022 454.408L466.847 111.188Z" fill="white" stroke="#2E353A" stroke-linecap="round" stroke-linejoin="round"/>
<path d="M466.86 111.194L210.61 221.075L264.83 347.518L521.079 237.636L466.86 111.194Z" fill="white" stroke="#2E353A" stroke-linecap="round" stroke-linejoin="round"/>
<path d="M465.738 233.81C478.137 214.167 472.264 188.192 452.621 175.793C432.978 163.395 407.004 169.267 394.605 188.91C382.206 208.553 388.079 234.528 407.722 246.927C427.365 259.325 453.34 253.453 465.738 233.81Z" fill="#2E353A" stroke="#2E353A" stroke-linecap="round" stroke-linejoin="round"/>
<path d="M446.756 250.033C452.444 247.598 457.524 243.935 461.631 239.306C465.739 234.677 468.772 229.198 470.513 223.26C462.216 207.416 443.862 200.008 428.192 206.736C412.523 213.464 405.237 231.853 410.989 248.795C416.491 251.623 422.551 253.2 428.734 253.414C434.917 253.628 441.071 252.473 446.756 250.033Z" fill="white" stroke="#2E353A" stroke-linecap="round" stroke-linejoin="round"/>
<path d="M441.416 219.248C450.025 211.217 450.494 197.728 442.463 189.119C434.432 180.51 420.943 180.041 412.334 188.072C403.725 196.103 403.256 209.592 411.287 218.201C419.318 226.81 432.807 227.279 441.416 219.248Z" fill="white" stroke="#2E353A" stroke-linecap="round" stroke-linejoin="round"/>
<path d="M342.113 217.982L252.436 256.437L256.853 266.737L346.53 228.283L342.113 217.982Z" fill="white" stroke="#2E353A" stroke-linecap="round" stroke-linejoin="round"/>
<path d="M352.727 242.718L263.05 281.172L267.467 291.473L357.144 253.019L352.727 242.718Z" fill="white" stroke="#2E353A" stroke-linecap="round" stroke-linejoin="round"/>
<path d="M361.572 263.325L271.895 301.779L274.106 306.938L363.784 268.483L361.572 263.325Z" fill="#2E353A"/>
<path d="M366.874 275.695L277.196 314.15L279.408 319.308L369.086 280.854L366.874 275.695Z" fill="#2E353A"/>
<path d="M393.845 338.573L304.167 377.028L306.379 382.186L396.057 343.732L393.845 338.573Z" fill="#2E353A"/>
<path d="M398.707 349.909L309.029 388.364L311.241 393.522L400.919 355.068L398.707 349.909Z" fill="#2E353A"/>
<path d="M403.554 361.27L313.876 399.724L316.088 404.882L405.766 366.428L403.554 361.27Z" fill="#2E353A"/>
<path d="M515.464 286.44L425.786 324.895L427.998 330.053L517.676 291.598L515.464 286.44Z" fill="#2E353A"/>
<path d="M520.32 297.76L430.643 336.214L432.854 341.373L522.532 302.918L520.32 297.76Z" fill="#2E353A"/>
<path d="M525.2 309.113L435.522 347.568L437.734 352.726L527.412 314.272L525.2 309.113Z" fill="#2E353A"/>
<path d="M297.657 367.652L514.141 274.836" stroke="#2E353A" stroke-linecap="round" stroke-linejoin="round"/>
<path d="M419.031 397.341L329.354 435.796L331.565 440.954L421.243 402.5L419.031 397.341Z" fill="#2E353A"/>
<path d="M423.903 408.662L334.226 447.116L336.438 452.275L426.115 413.82L423.903 408.662Z" fill="#2E353A"/>
<path d="M428.767 420.015L339.089 458.469L341.301 463.628L430.978 425.173L428.767 420.015Z" fill="#2E353A"/>
<path d="M540.677 345.185L450.999 383.64L453.211 388.798L542.889 350.344L540.677 345.185Z" fill="#2E353A"/>
<path d="M545.533 356.505L455.855 394.959L458.067 400.118L547.745 361.663L545.533 356.505Z" fill="#2E353A"/>
<path d="M550.379 367.865L460.701 406.32L462.913 411.478L552.591 373.024L550.379 367.865Z" fill="#2E353A"/>
<path d="M322.844 426.409L539.328 333.593" stroke="#2E353A" stroke-linecap="round" stroke-linejoin="round"/>
<path d="M560.113 390.525L347.758 481.584L369.856 533.119L582.212 442.06L560.113 390.525Z" fill="#2E353A" stroke="#2E353A" stroke-linecap="round" stroke-linejoin="round"/>
<path d="M408.249 108.918L174.389 260.73L377.726 573.962L611.586 422.15L408.249 108.918Z" fill="white" stroke="#2E353A" stroke-linecap="round" stroke-linejoin="round"/>
<path d="M408.26 108.933L174.399 260.745L249.309 376.14L483.169 224.328L408.26 108.933Z" fill="white" stroke="#2E353A" stroke-linecap="round" stroke-linejoin="round"/>
<path d="M395.848 255.338C418.776 251.613 434.342 230.005 430.616 207.077C426.891 184.149 405.283 168.583 382.356 172.309C359.428 176.035 343.861 197.642 347.587 220.57C351.313 243.498 372.92 259.064 395.848 255.338Z" fill="#2E353A" stroke="#2E353A" stroke-linecap="round" stroke-linejoin="round"/>
<path d="M412.034 248.987C417.227 245.621 421.613 241.149 424.876 235.891C428.139 230.633 430.2 224.719 430.911 218.571C420.034 204.348 400.687 200.199 386.394 209.472C372.101 218.745 368.022 238.128 376.581 253.85C382.483 255.705 388.723 256.23 394.852 255.39C400.982 254.549 406.849 252.362 412.034 248.987Z" fill="#92CCE3" stroke="#2E353A" stroke-linecap="round" stroke-linejoin="round"/>
<path d="M398.384 222.982C407.345 215.347 408.421 201.893 400.786 192.931C393.151 183.969 379.696 182.894 370.734 190.529C361.773 198.164 360.697 211.618 368.332 220.58C375.968 229.542 389.422 230.617 398.384 222.982Z" fill="white" stroke="#2E353A" stroke-linecap="round" stroke-linejoin="round"/>
<path d="M303.459 235.345L221.616 288.474L227.719 297.874L309.561 244.746L303.459 235.345Z" fill="white" stroke="#2E353A" stroke-linecap="round" stroke-linejoin="round"/>
<path d="M318.11 257.922L236.268 311.051L242.37 320.451L324.212 267.323L318.11 257.922Z" fill="white" stroke="#2E353A" stroke-linecap="round" stroke-linejoin="round"/>
<path d="M328.859 279.051L246.896 331.742L249.927 336.456L331.89 283.766L328.859 279.051Z" fill="#2E353A"/>
<path d="M337.663 288.013L255.82 341.142L258.876 345.849L340.719 292.72L337.663 288.013Z" fill="#2E353A"/>
<path d="M374.924 345.395L293.082 398.523L296.138 403.231L377.98 350.102L374.924 345.395Z" fill="#2E353A"/>
<path d="M381.641 355.759L299.799 408.888L302.855 413.595L384.697 360.467L381.641 355.759Z" fill="#2E353A"/>
<path d="M388.358 366.123L306.516 419.251L309.572 423.959L391.414 370.83L388.358 366.123Z" fill="#2E353A"/>
<path d="M485.933 273.327L404.091 326.456L407.147 331.163L488.989 278.034L485.933 273.327Z" fill="#2E353A"/>
<path d="M492.666 283.681L410.823 336.81L413.879 341.518L495.721 288.389L492.666 283.681Z" fill="#2E353A"/>
<path d="M499.381 294.046L417.539 347.174L420.595 351.882L502.437 298.753L499.381 294.046Z" fill="#2E353A"/>
<path d="M285.107 390.311L482.662 262.042" stroke="#2E353A" stroke-linecap="round" stroke-linejoin="round"/>
<path d="M409.74 399.037L327.897 452.166L330.953 456.873L412.796 403.744L409.74 399.037Z" fill="#2E353A"/>
<path d="M416.447 409.386L334.604 462.515L337.66 467.223L419.503 414.094L416.447 409.386Z" fill="#2E353A"/>
<path d="M423.178 419.723L341.336 472.852L344.392 477.56L426.234 424.431L423.178 419.723Z" fill="#2E353A"/>
<path d="M520.75 326.969L438.907 380.098L441.963 384.806L523.806 331.677L520.75 326.969Z" fill="#2E353A"/>
<path d="M527.471 337.309L445.629 390.438L448.685 395.146L530.527 342.017L527.471 337.309Z" fill="#2E353A"/>
<path d="M534.17 347.674L452.328 400.802L455.384 405.51L537.226 352.381L534.17 347.674Z" fill="#2E353A"/>
<path d="M319.916 443.927L517.471 315.675" stroke="#2E353A" stroke-linecap="round" stroke-linejoin="round"/>
<path d="M547.637 368.365L353.835 494.173L384.366 541.205L578.168 415.397L547.637 368.365Z" fill="#2E353A" stroke="#2E353A" stroke-linecap="round" stroke-linejoin="round"/>
<path d="M143.434 239.069L19.4697 143.098L93.2347 281.477C94.9777 284.823 90.3587 285.451 85.6525 282.488C80.894 279.507 76.2053 280.169 78.0703 283.551L116.33 353.098C116.938 354.089 117.738 354.948 118.683 355.625L137.368 369.709C138.34 370.394 139.154 371.28 139.756 372.306L217.164 519.33L351.046 618.055L143.434 239.069Z" fill="#92CCE3" stroke="#2E353A" stroke-linecap="round" stroke-linejoin="round"/>
<path opacity="0.25" d="M143.434 239.069L19.4697 143.098L93.2347 281.477C94.9777 284.823 90.3587 285.451 85.6525 282.488C80.894 279.507 76.2053 280.169 78.0703 283.551L116.33 353.098C116.938 354.089 117.738 354.948 118.683 355.625L137.368 369.709C138.34 370.394 139.154 371.28 139.756 372.306L217.164 519.33L351.046 618.055L143.434 239.069Z" fill="#2E353A" stroke="#2E353A" stroke-linecap="round" stroke-linejoin="round"/>
<path d="M671.449 450.341C671.423 450.278 671.373 450.228 671.31 450.201C669.271 449.313 652.137 449.469 651.683 450.48C651.683 450.602 651.771 450.759 652.032 450.934C652.398 451.164 652.783 451.362 653.182 451.526C653.67 451.735 654.263 451.962 654.925 452.189C655.588 452.415 656.215 452.642 656.895 452.851L659.806 453.757L661.34 454.21L662.351 454.489L644.607 471.658C640.911 475.032 637.029 478.198 632.981 481.14L632.179 480.338C631.019 479.218 629.791 478.17 628.501 477.201V476.748C626.999 477.704 625.433 478.554 623.812 479.293C617.747 482.343 600.735 489.977 594.669 502.213C591.628 508.423 588.254 514.462 584.559 520.306V521.108H584.071C578.197 520.602 567.007 524.507 558.78 528.568C551.754 532.453 544.989 536.791 538.526 541.554L532.147 543.802C529.828 544.133 525.575 544.674 524.983 545.388C524.39 546.103 520.259 545.388 518.429 545.841C516.599 546.295 517.122 547.584 517.122 547.584L520.608 547.916L497.617 555.916L516.111 570.592L541.193 561.285L542.535 561.616C545.21 562.438 548.1 562.181 550.588 560.901C551.473 560.569 552.34 560.191 553.185 559.768C557.821 559.158 571.922 556.056 576.82 554.975C580.498 559.96 590.991 568.344 592.787 571.969C592.871 572.161 592.941 572.359 592.996 572.562C592.996 572.562 592.996 572.649 592.996 572.701C593.032 572.85 593.032 573.006 592.996 573.155C592.165 575.183 591.082 577.098 589.771 578.854C587.382 577.868 584.916 577.081 582.398 576.501C572.864 574.305 567.652 584.205 565.996 584.694C564.34 585.182 562.318 586.646 564.253 588.04C566.188 589.435 563.26 590.724 562.074 592.607C561.338 594.095 560.838 595.688 560.593 597.33C554.3 597.871 548.915 600.468 547.52 604.303C545.777 609.201 561.656 612.791 561.656 612.791C561.656 612.791 583.636 621.384 600.404 615.998C617.171 610.612 616.527 601.636 617.834 596.825C619.141 592.014 632.824 580.179 648.18 571.935C663.536 563.69 670.212 556.247 655.605 545.074C646.019 537.736 637.582 534.215 630.628 533.937C630.802 533.518 630.994 533.1 631.185 532.699L631.534 531.932C631.743 531.496 631.987 531.078 632.214 530.642L632.562 530.015C632.928 529.387 633.312 528.777 633.73 528.167C634.458 527.133 635.094 526.036 635.63 524.89C637.324 521.348 637.773 517.337 636.903 513.508C636.605 512.405 636.441 511.269 636.415 510.127C636.763 507.843 640.563 498.867 641.539 494.875C641.575 494.598 641.575 494.316 641.539 494.039C641.399 492.912 641.044 491.824 640.493 490.831C644.415 488.496 652.311 484.243 655.936 480.216C659.562 476.19 667.493 461.845 670.456 454.489C670.578 454.193 670.682 453.897 670.787 453.618C670.892 453.356 670.979 453.078 671.066 452.833C671.136 452.589 671.205 452.363 671.275 452.154V452.067C671.275 451.892 671.38 451.7 671.415 451.544C671.406 451.515 671.406 451.485 671.415 451.456C671.415 451.3 671.415 451.16 671.415 451.038V450.916C671.423 450.823 671.423 450.73 671.415 450.637V450.498C671.415 450.498 671.467 450.393 671.449 450.341ZM578.842 548.456C573.456 549.955 561.046 553.877 554.44 556.073L542.239 544.9C545.202 543.366 551.773 540.508 559.233 537.301C566.151 534.71 573.327 532.869 580.638 531.81C581.244 532.932 581.639 534.154 581.805 535.418C582.502 537.578 583.377 539.677 584.42 541.693C583.019 544.289 581.124 546.586 578.842 548.456Z" fill="#2E353A"/>
<path d="M650.568 366.431C654.22 377.543 657.275 388.843 659.719 400.281C662.177 413.755 667.319 441.8 667.319 441.8C667.319 441.8 654.386 442.532 654.159 444.641C653.932 446.75 671.223 455.099 673.803 454.28C676.383 453.461 677.864 400.839 676.313 388.882C674.762 376.924 666.5 360.993 665.855 357.402C665.21 353.812 663.798 346.822 663.798 346.822L650.568 366.431Z" fill="white" stroke="#2E353A" stroke-linecap="round" stroke-linejoin="round"/>
<path d="M673.802 454.28C674.447 454.088 675.022 450.794 675.545 445.565C670.473 449.295 666.83 445.565 666.83 445.565L667.301 441.835C667.301 441.835 654.367 442.567 654.141 444.676C653.914 446.785 671.223 455.082 673.802 454.28Z" fill="#92CCE3" stroke="#2E353A" stroke-linecap="round" stroke-linejoin="round"/>
<path d="M642.881 208.774C642.881 208.774 622.348 187.614 619.298 186.115C616.247 184.616 615.184 187.858 616.056 189.688C616.927 191.518 637.809 219.198 641.347 222.806C644.885 226.414 642.881 208.774 642.881 208.774Z" fill="white" stroke="#2E353A" stroke-linecap="round" stroke-linejoin="round"/>
<path d="M589.614 148.832L562.092 168.668L594.652 215.642L619.821 194.465L589.614 148.832Z" fill="#2E353A" stroke="#2E353A" stroke-linecap="round" stroke-linejoin="round"/>
<path d="M589.805 153.938L566.519 170.724L594.076 210.482L615.376 192.564L589.805 153.938Z" fill="#92CCE3" stroke="#2E353A" stroke-linecap="round" stroke-linejoin="round"/>
<path d="M621.755 189.863C620.862 187.662 619.765 185.549 618.479 183.553C616.213 180.067 614.766 178.202 610.774 178.428C607.809 178.515 604.842 178.299 601.92 177.783C599.636 177.539 599.602 180.834 600.804 181.967C602.007 183.1 608.648 182.821 608.648 182.821C607.968 181.932 608.474 183.379 612.866 189.427C614.104 191.17 618.444 191.466 619.42 191.571" fill="white"/>
<path d="M621.755 189.863C620.862 187.662 619.765 185.549 618.479 183.553C616.213 180.067 614.766 178.202 610.774 178.428C607.809 178.515 604.842 178.299 601.92 177.783C599.636 177.539 599.602 180.834 600.804 181.967C602.007 183.1 608.648 182.821 608.648 182.821C607.968 181.932 608.474 183.379 612.866 189.427C614.104 191.17 618.444 191.466 619.42 191.571" stroke="#2E353A" stroke-linecap="round" stroke-linejoin="round"/>
<path d="M651.212 114.337C650.169 118.642 649.487 123.026 649.173 127.444C649.173 131.628 651.439 135.532 648.615 137.31C645.791 139.088 646.977 142.888 648.354 144.596C649.731 146.304 649.016 167.935 659.98 168.092C670.943 168.249 681.489 162.601 683.72 156.57C685.951 150.54 691.476 133.371 684.521 125.283C677.567 117.195 657.627 103.53 651.212 114.337Z" fill="white" stroke="#2E353A" stroke-linecap="round" stroke-linejoin="round"/>
<path d="M651.632 134.365L653.357 137.538L651.266 137.607" stroke="#2E353A" stroke-linecap="round" stroke-linejoin="round"/>
<path d="M651.282 129.275C651.282 129.275 654.559 129.275 654.768 134.714" stroke="#2E353A" stroke-linecap="round" stroke-linejoin="round"/>
<path d="M668.695 164.851C669.111 169.722 669.111 174.621 668.695 179.492C668.564 180.287 668.248 181.039 667.771 181.688C673.216 177.95 679.063 174.834 685.202 172.398L686.945 171.736C686.053 164.338 685.611 156.893 685.62 149.442L668.695 164.851Z" fill="white" stroke="#2E353A" stroke-linecap="round" stroke-linejoin="round"/>
<path d="M621.93 373.491C621.93 373.491 620.989 397.109 622.976 405.179C624.963 413.249 632.301 480.007 631.987 486.038C631.674 492.069 631.43 494.544 631.43 494.544C631.43 494.544 613.285 497.193 611.437 497.716C609.59 498.239 608.98 500.662 619.019 503.538C629.059 506.414 636.781 510.824 638.925 507.495C641.069 504.165 643.98 491.807 644.834 482.796C646.838 461.88 650.272 438.384 648.215 427.821C646.158 417.258 640.807 404.116 641.539 400.63C642.271 397.143 653.601 358.797 653.601 358.797L621.93 373.491Z" fill="white" stroke="#2E353A" stroke-linecap="round" stroke-linejoin="round"/>
<path d="M638.925 507.495C640.032 505.197 640.789 502.747 641.173 500.226C635.857 503.033 629.321 499.058 629.321 499.058L631.43 494.544C631.43 494.544 613.285 497.193 611.437 497.716C609.59 498.239 608.98 500.662 619.019 503.538C629.059 506.414 636.781 510.824 638.925 507.495Z" fill="#92CCE3" stroke="#2E353A" stroke-linecap="round" stroke-linejoin="round"/>
<path d="M668.695 164.851C669.111 169.722 669.111 174.621 668.695 179.492C667.963 186.203 637.582 205.882 638.349 213.29C639.116 220.697 642.689 231.016 640.685 239.679C638.681 248.342 627.56 278.496 625.346 289.233C623.133 299.97 614.714 381.614 618.514 385.204C622.313 388.795 637.687 387.279 645.426 382.904C653.165 378.529 669.149 361.987 670.561 353.778C671.972 345.568 673.559 326.395 674.587 321.793C675.615 317.191 683.616 306.106 682.727 285.573C681.838 265.04 689.246 240.254 690.989 224.271C692.732 208.287 690.989 186.621 688.217 177.958C685.446 169.295 685.585 149.442 685.585 149.442L668.695 164.851Z" fill="#92CCE3" stroke="#2E353A" stroke-linecap="round" stroke-linejoin="round"/>
<path d="M670.526 353.777C671.955 345.567 673.524 326.394 674.552 321.792C675.581 317.191 683.581 306.105 682.692 285.572C682.187 274.312 684.209 261.763 686.422 250.067C680.618 255.575 665.506 268.404 649.383 269.903C637.722 271.001 633.922 267.602 632.824 264.429C629.599 274.156 626.392 284.004 625.312 289.233C623.081 299.97 614.679 381.613 618.479 385.204C622.279 388.794 637.652 387.278 645.391 382.903C653.13 378.528 669.114 361.987 670.526 353.777Z" fill="#2E353A" stroke="#2E353A" stroke-linecap="round" stroke-linejoin="round"/>
<path d="M667.231 329.967L643.7 370.963" stroke="white" stroke-width="0.5" stroke-linecap="round" stroke-linejoin="round"/>
<path d="M656.476 356.183L645.722 377.692" stroke="white" stroke-width="0.5" stroke-linecap="round" stroke-linejoin="round"/>
<path d="M744.517 193.924C739.968 174.21 727.087 167.395 715.722 160.58C710.493 157.46 708.75 152.126 708.506 147.246L707.931 152.475C707.645 150.002 707.645 147.505 707.931 145.032C708.123 143.882 708.367 142.644 708.646 141.302C708.399 143.25 708.34 145.217 708.471 147.176L709.639 136.265V136.387C711.382 126.608 712.167 113.588 701.918 99.94C688.235 81.708 660.869 88.1397 660.869 88.1397C660.869 88.1397 642.62 87.704 641.487 98.0401C640.354 108.376 647.152 117.998 656.337 120.055C656.337 120.055 658.202 124.029 660.329 129.972C659.365 130.879 658.619 131.994 658.15 133.232C658.15 133.232 661.183 134.748 662.699 144.596C664.216 154.444 649.051 172.642 650.498 184.686C651.945 196.73 664.896 196.887 664.129 203.633C663.362 210.378 654.281 208.862 655.048 217.263C655.588 223.242 665.889 230.789 672.478 236.262C672.071 242.064 672.03 247.886 672.356 253.692C668.292 260.286 666.216 267.911 666.377 275.655C666.83 286.88 677.201 290.871 687.049 288.239C689.758 287.5 692.394 286.52 694.928 285.311C704.201 289.041 726.756 286.165 737.597 268.09C748.962 249.143 738.347 243.077 737.597 229.447C736.848 215.816 749.066 213.62 744.517 193.924Z" fill="#2E353A" stroke="#2E353A" stroke-linecap="round" stroke-linejoin="round"/>
<path d="M654.995 104.681C660.502 112.015 667.201 118.372 674.813 123.488C689.211 132.587 679.363 159.865 667.998 171.979C656.634 184.093 658.9 195.475 671.78 201.523C684.661 207.572 707.391 214.404 694.44 236.384C681.489 258.363 680.042 275.776 698.989 281.092" stroke="white" stroke-width="0.5" stroke-linecap="round" stroke-linejoin="round"/>
<path d="M650.568 98.458C650.568 98.458 651.614 100.201 653.532 102.728" stroke="white" stroke-width="0.5" stroke-linecap="round" stroke-linejoin="round"/>
<path d="M715.182 278.496C716.431 278.794 717.727 278.838 718.994 278.625C720.26 278.413 721.471 277.948 722.555 277.258" stroke="white" stroke-width="0.5" stroke-linecap="round" stroke-linejoin="round"/>
<path d="M701.272 195.336C713.02 199.554 725.675 203.11 727.087 215.137C729.37 234.833 702.841 243.932 702.841 259.828C702.841 267.306 705.682 272.604 709.395 275.655" stroke="white" stroke-width="0.5" stroke-linecap="round" stroke-linejoin="round"/>
<path d="M674.813 123.488C674.813 123.488 692.993 130.304 697.473 141.668C701.952 153.033 673.994 169.713 683.075 184.111C685.882 188.538 690.902 191.309 696.601 193.61" stroke="white" stroke-width="0.5" stroke-linecap="round" stroke-linejoin="round"/>
<path d="M700.157 107.487C700.157 107.487 715.844 123.506 708.681 141.372C701.517 159.238 698.222 167.308 703.452 172.014C708.681 176.72 736.412 178.742 743.175 200.182" stroke="white" stroke-width="0.5" stroke-linecap="round" stroke-linejoin="round"/>
<path d="M636.432 258.033C636.432 258.033 620.571 246.32 613.076 233.351C605.58 220.383 599.271 209.367 599.428 207.955C599.584 206.544 600.351 199.484 598.155 196.748C595.959 194.011 588.464 190.682 587.488 189.863C586.512 189.044 584.472 191.327 586.738 193.349C589.004 195.371 591.253 197.776 591.253 197.776L576.681 194.046C576.32 194.656 576.153 195.361 576.203 196.068C576.253 196.775 576.517 197.45 576.96 198.003C578.564 199.606 583.148 200.094 583.305 201.907C583.461 203.72 588.098 207.136 590.068 208.705C590.905 209.537 591.944 210.137 593.083 210.448C593.083 210.448 601.432 238.493 607.306 250.206C613.18 261.92 622.122 274.609 628.344 276.352C634.567 278.095 642.202 267.149 642.202 267.149L636.432 258.033Z" fill="white" stroke="#2E353A" stroke-linecap="round" stroke-linejoin="round"/>
<path d="M663.989 201.803C663.989 201.803 655.5 207.659 652.851 215.572C650.202 223.486 636.676 242.711 634.723 247.505C633.837 249.894 632.629 252.152 631.133 254.215C631.133 254.215 632.876 264.674 640.092 270.182C647.308 275.69 649.539 275.149 649.539 275.149C649.539 275.149 675.685 232.654 679.903 222.771C684.121 212.888 675.231 196.957 663.989 201.803Z" fill="#92CCE3" stroke="#2E353A" stroke-linecap="round" stroke-linejoin="round"/>
</svg>
