<svg width="189" height="33" viewBox="0 0 189 33" fill="none" xmlns="http://www.w3.org/2000/svg">
<path d="M15.1973 15.4775C15.222 14.7725 15.1849 14.1725 15.0859 13.6777C14.9993 13.1829 14.8509 12.7747 14.6406 12.4531C14.4427 12.1315 14.1953 11.8965 13.8984 11.748C13.6016 11.5996 13.2614 11.5254 12.8779 11.5254C12.21 11.5254 11.5173 11.8037 10.7998 12.3604C10.0947 12.9046 9.31543 13.8076 8.46191 15.0693V27H3.82324V8.14844H7.92383L8.09082 10.8945C8.40007 10.4121 8.74642 9.97917 9.12988 9.5957C9.52572 9.21224 9.95866 8.88444 10.4287 8.6123C10.9111 8.3278 11.443 8.11133 12.0244 7.96289C12.6058 7.81445 13.2428 7.74023 13.9355 7.74023C14.888 7.74023 15.7292 7.90723 16.459 8.24121C17.2012 8.56283 17.8197 9.04525 18.3145 9.68848C18.8216 10.3317 19.1927 11.1419 19.4277 12.1191C19.6751 13.084 19.7803 14.2035 19.7432 15.4775H15.1973ZM40.9326 17.4258C40.9326 18.9102 40.7223 20.2708 40.3018 21.5078C39.8812 22.7324 39.2751 23.7839 38.4834 24.6621C37.6917 25.5404 36.7207 26.2207 35.5703 26.7031C34.4199 27.1855 33.1087 27.4268 31.6367 27.4268C30.2389 27.4268 28.9896 27.2227 27.8887 26.8145C26.7878 26.4062 25.8538 25.8001 25.0869 24.9961C24.32 24.1797 23.7324 23.1654 23.3242 21.9531C22.916 20.7285 22.7119 19.306 22.7119 17.6855C22.7119 16.1888 22.9222 14.8281 23.3428 13.6035C23.7757 12.3789 24.388 11.3337 25.1797 10.4678C25.9837 9.60189 26.9609 8.93392 28.1113 8.46387C29.2617 7.98145 30.5605 7.74023 32.0078 7.74023C33.418 7.74023 34.6735 7.95052 35.7744 8.37109C36.8753 8.7793 37.8092 9.3916 38.5762 10.208C39.3431 11.0244 39.9245 12.0387 40.3203 13.251C40.7285 14.4508 40.9326 15.8424 40.9326 17.4258ZM36.2197 17.5371C36.2197 15.5827 35.8486 14.1169 35.1064 13.1396C34.3766 12.1501 33.2943 11.6553 31.8594 11.6553C31.0677 11.6553 30.3936 11.8099 29.8369 12.1191C29.2803 12.4284 28.8226 12.8551 28.4639 13.3994C28.1051 13.9313 27.8392 14.556 27.666 15.2734C27.5052 15.9909 27.4248 16.7578 27.4248 17.5742C27.4248 19.541 27.8206 21.0254 28.6123 22.0273C29.404 23.0169 30.4863 23.5117 31.8594 23.5117C32.6139 23.5117 33.2695 23.3633 33.8262 23.0664C34.3828 22.7572 34.8343 22.3366 35.1807 21.8047C35.527 21.2604 35.7868 20.6234 35.96 19.8936C36.1331 19.1637 36.2197 18.3783 36.2197 17.5371ZM60.3965 21.4521C60.3965 22.5283 60.1553 23.4499 59.6729 24.2168C59.2028 24.9714 58.5719 25.5898 57.7803 26.0723C57.001 26.5423 56.1104 26.8825 55.1084 27.0928C54.1188 27.3154 53.1045 27.4268 52.0654 27.4268C50.68 27.4268 49.4307 27.3587 48.3174 27.2227C47.2041 27.099 46.1527 26.9134 45.1631 26.666V22.584C46.3258 23.0664 47.4824 23.4189 48.6328 23.6416C49.7956 23.8519 50.8903 23.957 51.917 23.957C53.1045 23.957 53.9889 23.7715 54.5703 23.4004C55.1641 23.0169 55.4609 22.5221 55.4609 21.916C55.4609 21.6315 55.3991 21.3717 55.2754 21.1367C55.1517 20.9017 54.9167 20.679 54.5703 20.4688C54.2363 20.2461 53.7601 20.0234 53.1416 19.8008C52.5231 19.5658 51.7129 19.306 50.7109 19.0215C49.7832 18.7617 48.9668 18.471 48.2617 18.1494C47.569 17.8154 46.9938 17.4258 46.5361 16.9805C46.0785 16.5352 45.7321 16.0218 45.4971 15.4404C45.2744 14.8467 45.1631 14.154 45.1631 13.3623C45.1631 12.5954 45.3363 11.8717 45.6826 11.1914C46.029 10.5111 46.5423 9.91732 47.2227 9.41016C47.9154 8.89062 48.7751 8.48242 49.8018 8.18555C50.8285 7.88867 52.0283 7.74023 53.4014 7.74023C54.5889 7.74023 55.6403 7.80208 56.5557 7.92578C57.471 8.04948 58.2812 8.18555 58.9863 8.33398V12.0264C57.9102 11.68 56.8958 11.4388 55.9434 11.3027C55.0033 11.1543 54.0693 11.0801 53.1416 11.0801C52.2139 11.0801 51.4655 11.2471 50.8965 11.5811C50.3398 11.915 50.0615 12.3789 50.0615 12.9727C50.0615 13.2572 50.1172 13.5107 50.2285 13.7334C50.3398 13.9561 50.5563 14.1725 50.8779 14.3828C51.2119 14.5931 51.6696 14.8158 52.251 15.0508C52.8447 15.2734 53.624 15.5208 54.5889 15.793C55.6774 16.1022 56.5928 16.4362 57.335 16.7949C58.0771 17.1413 58.6709 17.5371 59.1162 17.9824C59.5739 18.4277 59.9017 18.9349 60.0996 19.5039C60.2975 20.0729 60.3965 20.7223 60.3965 21.4521ZM81.2891 21.4521C81.2891 22.5283 81.0479 23.4499 80.5654 24.2168C80.0954 24.9714 79.4645 25.5898 78.6729 26.0723C77.8936 26.5423 77.0029 26.8825 76.001 27.0928C75.0114 27.3154 73.9971 27.4268 72.958 27.4268C71.5726 27.4268 70.3232 27.3587 69.21 27.2227C68.0967 27.099 67.0452 26.9134 66.0557 26.666V22.584C67.2184 23.0664 68.375 23.4189 69.5254 23.6416C70.6882 23.8519 71.7829 23.957 72.8096 23.957C73.9971 23.957 74.8815 23.7715 75.4629 23.4004C76.0566 23.0169 76.3535 22.5221 76.3535 21.916C76.3535 21.6315 76.2917 21.3717 76.168 21.1367C76.0443 20.9017 75.8092 20.679 75.4629 20.4688C75.1289 20.2461 74.6527 20.0234 74.0342 19.8008C73.4157 19.5658 72.6055 19.306 71.6035 19.0215C70.6758 18.7617 69.8594 18.471 69.1543 18.1494C68.4616 17.8154 67.8864 17.4258 67.4287 16.9805C66.971 16.5352 66.6247 16.0218 66.3896 15.4404C66.167 14.8467 66.0557 14.154 66.0557 13.3623C66.0557 12.5954 66.2288 11.8717 66.5752 11.1914C66.9215 10.5111 67.4349 9.91732 68.1152 9.41016C68.8079 8.89062 69.6676 8.48242 70.6943 8.18555C71.721 7.88867 72.9209 7.74023 74.2939 7.74023C75.4814 7.74023 76.5329 7.80208 77.4482 7.92578C78.3636 8.04948 79.1738 8.18555 79.8789 8.33398V12.0264C78.8027 11.68 77.7884 11.4388 76.8359 11.3027C75.8958 11.1543 74.9619 11.0801 74.0342 11.0801C73.1064 11.0801 72.3581 11.2471 71.7891 11.5811C71.2324 11.915 70.9541 12.3789 70.9541 12.9727C70.9541 13.2572 71.0098 13.5107 71.1211 13.7334C71.2324 13.9561 71.4489 14.1725 71.7705 14.3828C72.1045 14.5931 72.5622 14.8158 73.1436 15.0508C73.7373 15.2734 74.5166 15.5208 75.4814 15.793C76.57 16.1022 77.4854 16.4362 78.2275 16.7949C78.9697 17.1413 79.5635 17.5371 80.0088 17.9824C80.4665 18.4277 80.7943 18.9349 80.9922 19.5039C81.1901 20.0729 81.2891 20.7223 81.2891 21.4521ZM103.054 16.127C103.054 16.4362 103.041 16.8382 103.017 17.333C103.004 17.8278 102.979 18.2917 102.942 18.7246H90.5479C90.5479 19.5534 90.6715 20.2832 90.9189 20.9141C91.1787 21.5449 91.5374 22.0768 91.9951 22.5098C92.4652 22.9303 93.0218 23.252 93.665 23.4746C94.3206 23.6973 95.0443 23.8086 95.8359 23.8086C96.7513 23.8086 97.7285 23.7406 98.7676 23.6045C99.819 23.4561 100.908 23.221 102.033 22.8994V26.499C101.551 26.6351 101.025 26.7588 100.456 26.8701C99.887 26.9814 99.3057 27.0804 98.7119 27.167C98.1182 27.2536 97.5182 27.3154 96.9121 27.3525C96.306 27.402 95.7184 27.4268 95.1494 27.4268C93.7145 27.4268 92.4281 27.2227 91.29 26.8145C90.152 26.4062 89.1872 25.8063 88.3955 25.0146C87.6038 24.2106 86.9977 23.221 86.5771 22.0459C86.1566 20.8708 85.9463 19.5101 85.9463 17.9639C85.9463 16.43 86.1566 15.0384 86.5771 13.7891C86.9977 12.5273 87.5915 11.4512 88.3584 10.5605C89.1253 9.65755 90.0531 8.96484 91.1416 8.48242C92.2425 7.98763 93.4671 7.74023 94.8154 7.74023C96.1514 7.74023 97.3327 7.95052 98.3594 8.37109C99.3861 8.7793 100.246 9.35449 100.938 10.0967C101.631 10.8389 102.157 11.7233 102.516 12.75C102.874 13.7767 103.054 14.9023 103.054 16.127ZM98.4521 15.4775C98.4645 14.7354 98.3717 14.0921 98.1738 13.5479C97.9759 12.9912 97.7038 12.5335 97.3574 12.1748C97.0234 11.8161 96.6276 11.5501 96.1699 11.377C95.7246 11.2038 95.2422 11.1172 94.7227 11.1172C93.5846 11.1172 92.6507 11.5007 91.9209 12.2676C91.1911 13.0221 90.7581 14.0921 90.6221 15.4775H98.4521ZM113.611 4.30762H108.286V0.782227H118.25V23.4746H123.687V27H107.637V23.4746H113.611V4.30762ZM134.504 4.30762H129.179V0.782227H139.143V23.4746H144.579V27H128.529V23.4746H134.504V4.30762ZM161.13 27L161.019 24.5322C160.623 24.9528 160.208 25.3424 159.775 25.7012C159.342 26.0475 158.866 26.3506 158.347 26.6104C157.827 26.8701 157.258 27.068 156.64 27.2041C156.034 27.3525 155.366 27.4268 154.636 27.4268C153.671 27.4268 152.824 27.2845 152.094 27C151.364 26.7155 150.752 26.3197 150.257 25.8125C149.762 25.3053 149.385 24.693 149.125 23.9756C148.878 23.2581 148.754 22.4665 148.754 21.6006C148.754 20.71 148.939 19.8874 149.311 19.1328C149.694 18.3783 150.269 17.7288 151.036 17.1846C151.815 16.6403 152.78 16.2135 153.931 15.9043C155.093 15.5951 156.454 15.4404 158.013 15.4404H160.48V14.3086C160.48 13.8262 160.412 13.3932 160.276 13.0098C160.14 12.6139 159.918 12.2799 159.608 12.0078C159.312 11.7357 158.922 11.5254 158.439 11.377C157.957 11.2285 157.363 11.1543 156.658 11.1543C155.545 11.1543 154.444 11.2842 153.355 11.5439C152.279 11.7913 151.234 12.1439 150.22 12.6016V8.9834C151.123 8.62467 152.162 8.3278 153.337 8.09277C154.524 7.85775 155.755 7.74023 157.029 7.74023C158.427 7.74023 159.627 7.8763 160.629 8.14844C161.631 8.4082 162.453 8.80404 163.097 9.33594C163.752 9.86784 164.235 10.5358 164.544 11.3398C164.853 12.1315 165.008 13.0592 165.008 14.123V27H161.13ZM160.48 18.6689H157.716C156.949 18.6689 156.299 18.7432 155.768 18.8916C155.236 19.04 154.803 19.2441 154.469 19.5039C154.135 19.7637 153.887 20.0667 153.727 20.4131C153.578 20.7471 153.504 21.1058 153.504 21.4893C153.504 22.2562 153.751 22.8438 154.246 23.252C154.741 23.6478 155.415 23.8457 156.269 23.8457C156.899 23.8457 157.555 23.6169 158.235 23.1592C158.916 22.7015 159.664 22.0459 160.48 21.1924V18.6689ZM177.959 20.1533C178.479 20.1533 178.961 20.2523 179.406 20.4502C179.852 20.6357 180.235 20.8955 180.557 21.2295C180.891 21.5511 181.15 21.9346 181.336 22.3799C181.521 22.8252 181.614 23.3014 181.614 23.8086C181.614 24.3034 181.521 24.7734 181.336 25.2188C181.15 25.6517 180.891 26.0352 180.557 26.3691C180.235 26.6908 179.852 26.9443 179.406 27.1299C178.961 27.3278 178.479 27.4268 177.959 27.4268C177.464 27.4268 177 27.3278 176.567 27.1299C176.134 26.9443 175.757 26.6908 175.436 26.3691C175.114 26.0352 174.86 25.6517 174.675 25.2188C174.489 24.7734 174.396 24.3034 174.396 23.8086C174.396 23.3014 174.489 22.8252 174.675 22.3799C174.86 21.9346 175.114 21.5511 175.436 21.2295C175.757 20.8955 176.134 20.6357 176.567 20.4502C177 20.2523 177.464 20.1533 177.959 20.1533Z" fill="#D5E2E8"/>
</svg>
